<?xml version="1.0" encoding="UTF-8"?>
<svg id="Layer_1" data-name="Layer 1" xmlns="http://www.w3.org/2000/svg" viewBox="0 0 1080 1077.91">
  <defs>
    <style>
      .cls-1 {
        fill: #231f20;
      }
    </style>
  </defs>
  <g>
    <path class="cls-1" d="M540,924.73c-52.2,0-102.84-10.21-150.52-30.34-46.04-19.44-87.38-47.26-122.87-82.7-72.98-72.86-113.17-169.72-113.17-272.74s40.19-199.88,113.17-272.74c35.5-35.44,76.84-63.26,122.87-82.7,47.68-20.13,98.32-30.34,150.52-30.34s102.84,10.21,150.52,30.34c46.04,19.44,87.38,47.26,122.87,82.7,72.98,72.86,113.17,169.72,113.17,272.74s-40.19,199.88-113.17,272.74c-35.5,35.44-76.84,63.26-122.87,82.7-47.68,20.13-98.32,30.34-150.52,30.34Zm0-740.76c-94.91,0-184.15,36.91-251.28,103.92-67.17,67.05-104.15,156.21-104.15,251.06s36.99,184.01,104.15,251.06c67.13,67.01,156.37,103.92,251.28,103.92s184.15-36.91,251.28-103.92c67.16-67.05,104.15-156.21,104.15-251.06s-36.99-184.01-104.15-251.06c-67.13-67.01-156.37-103.92-251.28-103.92Z"/>
    <g>
      <path class="cls-1" d="M171.9,268.85c-1.74-4.18-2.69-8.47-2.84-12.84-.15-4.38,.38-8.42,1.59-12.13,1.21-3.71,3.1-7.05,5.66-10.03,2.56-2.98,5.6-5.22,9.13-6.74,4.33-1.84,9-2.22,14-1.12,5,1.1,9.54,3.36,13.64,6.81,.97-1.35,1.83-3.15,2.6-5.4l21.22,17.28c-.49,1.48-1.82,3.49-3.99,6.03-2.17,2.54-4.57,4.64-7.22,6.29,.93,7.12-.09,13.67-3.05,19.63-2.96,5.96-7.33,10.17-13.11,12.61-4.72,1.74-9.6,2.04-14.64,.91-5.04-1.13-9.63-3.59-13.76-7.38-4.13-3.78-7.2-8.42-9.22-13.92Zm3.77-9.76c2.27,4.25,5.31,7.31,9.12,9.19,3.82,1.88,7.27,1.97,10.38,.27,1.89-1.13,3.34-2.68,4.36-4.67-1.78,.17-3.74,.19-5.9,.05-4.13-.23-7.82-1.45-11.08-3.66s-5.63-4.72-7.14-7.54c-1.5-2.81-2.21-5.52-2.12-8.1l-.02-.64c-1.2,4.92-.4,9.96,2.39,15.1Zm5.08-13.71c3.09,2.31,6.53,3.27,10.31,2.87,3.78-.39,7.4-1.84,10.86-4.35-1.92-2.76-4.11-5.08-6.56-6.95s-5.11-3.02-7.95-3.46c-2.85-.44-5.29,.02-7.33,1.38l-1.18,.85c-1.14,1.37-1.55,2.97-1.24,4.82,.31,1.85,1.34,3.45,3.1,4.83Z"/>
      <path class="cls-1" d="M281.68,205.35c1.28,1.41,2.01,2.9,2.19,4.46,.19,1.57-.09,3.07-.83,4.51-.74,1.44-1.54,2.67-2.39,3.7-.85,1.02-1.82,2.02-2.91,2.99l-33.5,29.67-22.21-60.23,1.72,9.6c2.26,14.33,2.23,22.3-.08,23.92-.75,.5-1.71,.32-2.87-.54l-17.93-19.81c1.51,.88,3.17,.9,4.97,.06,1.81-.84,3.45-2.16,4.94-3.97,1.48-1.8,2.87-3.66,4.16-5.59,1.29-1.93,2.29-3.62,3.01-5.06l1.12-2.21,37.12,31.86c-4.87,12.86-8.8,21.77-11.79,26.74l.41-.36c1.76-2.16,3.67-4.93,5.72-8.31,2.05-3.38,4.05-7.21,6-11.49,1.95-4.27,3.57-8.47,4.86-12.57,1.28-4.11,1.97-8.1,2.07-11.98,.1-3.87-.61-6.98-2.12-9.32l18.35,13.93Z"/>
      <path class="cls-1" d="M270.4,173.03c.33,.12,.64,.21,.92,.29,.28,.08,.49,.13,.63,.15,.14,.03,.26,.04,.37,.04,.1,0,.18,.01,.24,.02l.05-.04c-.39,.08-.99,.05-1.78-.09-2.7-.09-5.01-.81-6.92-2.17-1.91-1.36-3.19-3.05-3.84-5.09-.65-2.03-.86-4.14-.62-6.33,.24-2.19,1.13-4.27,2.68-6.26,1.55-1.99,3.57-3.5,6.06-4.55,.81-.27,2.13-.67,3.96-1.2,1.83-.54,3.16-.95,3.97-1.25s1.69-.79,2.63-1.5c.94-.7,1.57-1.51,1.87-2.41l10.57,14.88c.71,1.28,.85,2.67,.43,4.17-.43,1.5-1.37,2.82-2.83,3.96-1.46,1.14-3.41,1.87-5.87,2.2-.3,.07-1.75,.22-4.34,.47-2.59,.25-4.17,.42-4.74,.53-2.68-.06-4.24,.61-4.7,2.01-.28,.93,.02,1.61,.92,2.02,.1,.08,.21,.12,.32,.14Zm14.95,41.83c.96-4.11,1.5-8.23,1.63-12.36,.13-4.13-.19-8.13-.95-12-.76-3.88-2.22-7.3-4.38-10.26-2.15-2.96-4.91-5.05-8.26-6.26l.55,.14c2.61-.04,6.91-.31,12.9-.81,5.99-.5,10.48-.65,13.45-.46,13.6,.79,19.66,7.11,18.19,18.97l-33.13,23.04Z"/>
      <path class="cls-1" d="M289.36,136.02c2.7-1.42,5.3-2.44,7.8-3.05,2.51-.61,4.82-.95,6.93-1.01,2.11-.06,4.3,.39,6.55,1.37,2.26,.98,4.24,1.95,5.94,2.93,1.7,.98,3.63,2.61,5.8,4.92,2.16,2.31,4,4.36,5.49,6.15,1.5,1.79,3.38,4.38,5.64,7.78,2.27,3.39,4.14,6.27,5.61,8.62,1.47,2.35,3.48,5.62,6.01,9.81-2.01-4.24-3.63-7.7-4.86-10.38-1.24-2.68-2.62-5.82-4.14-9.42-1.52-3.6-2.65-6.56-3.38-8.9-.73-2.33-1.44-4.98-2.13-7.95s-1.02-5.46-.95-7.48c.06-2.02,.3-4.18,.69-6.49s1.18-4.31,2.34-5.99c1.17-1.69,2.65-3.36,4.46-5.02,1.81-1.66,3.98-3.16,6.54-4.51l16.52,30.66c-3.16,.57-5.75,1.89-7.79,3.97-2.04,2.08-3.64,4.62-4.79,7.62-1.15,3-1.89,6.2-2.21,9.59-.32,3.39-.31,6.68,.03,9.88,.34,3.2,.96,6.03,1.86,8.47-1.66-2.05-3.78-4.08-6.36-6.09-2.58-2.01-5.43-3.81-8.54-5.39-3.11-1.58-6.28-2.71-9.49-3.42-3.22-.7-6.3-.78-9.26-.22-2.95,.56-5.55,1.97-7.79,4.24l-16.52-30.66Z"/>
      <path class="cls-1" d="M362.75,116.07c1.41-5.71,4.24-10.84,8.5-15.38,4.25-4.54,9.47-7.9,15.65-10.06,3.07-1.07,6-1.71,8.8-1.93,2.8-.21,5.23-.03,7.28,.53,2.06,.56,3.9,1.38,5.51,2.46,1.62,1.08,2.81,2.41,3.57,4.01,.76,1.59,1.21,3.26,1.33,4.98,.12,1.73-.22,3.55-1.03,5.46-.81,1.91-2.05,3.73-3.71,5.47-1.24,1.24-2.79,2.8-4.65,4.67-1.86,1.87-3.3,3.32-4.33,4.37-1.03,1.04-2.27,2.33-3.71,3.86-1.44,1.53-2.55,2.78-3.32,3.76-.77,.98-1.65,2.15-2.63,3.52-.98,1.37-1.72,2.6-2.21,3.69-.5,1.1-.97,2.31-1.42,3.64-.45,1.33-.74,2.67-.86,4.02-.12,1.35-.13,2.77-.03,4.27,.26-3.38,1.72-7.17,4.39-11.38,2.67-4.2,5.77-8.01,9.32-11.44,3.55-3.42,7.25-6.39,11.1-8.92,3.85-2.52,7.1-3.99,9.76-4.41l7.64,21.36c-2.07,4.61-4.94,8.63-8.61,12.06-3.68,3.42-8.01,6.01-13,7.76-6.07,2.12-12.08,2.68-18.03,1.67-5.96-1.01-11.14-3.38-15.53-7.1-4.4-3.72-7.47-8.39-9.23-14.01-1.78-5.57-1.96-11.21-.54-16.92Zm20.19,21.49c.39-3.02,1.22-5.77,2.49-8.25,1.28-2.48,2.59-4.7,3.93-6.66,1.35-1.97,2.8-3.96,4.34-5.98,1.55-2.01,2.61-3.6,3.19-4.74,.82-1.44,1.16-2.76,1.01-3.97-.15-1.21-.62-2.1-1.41-2.68-.79-.58-1.66-.81-2.61-.69-2.25,.23-4.3,1.39-6.14,3.49s-3.28,4.75-4.32,7.96c-1.04,3.2-1.78,6.62-2.22,10.26-.45,3.64-.47,7.29-.07,10.95,.4,3.66,1.2,6.85,2.38,9.55-.78-3.14-.97-6.23-.59-9.25Z"/>
      <path class="cls-1" d="M430.32,141.81c1.57-16.93,6.97-38.32,16.19-64.18-.64,1.81-1.44,3.87-2.41,6.2s-2.22,5.07-3.75,8.24c-1.53,3.17-3.06,6.04-4.61,8.6-1.55,2.56-3.23,4.78-5.06,6.68-1.82,1.89-3.51,2.93-5.05,3.11l-5.87-29.53c1.95,.61,4.58,.86,7.9,.74,3.32-.11,6.81-.68,10.49-1.73,3.68-1.04,6.6-2.47,8.77-4.29l7.72,38.84c-.7-6.64-.72-12.76-.07-18.37,.65-5.61,1.77-10.19,3.37-13.74s3.49-6.42,5.67-8.59c2.19-2.17,4.47-3.43,6.84-3.79,2.37-.36,4.65,.11,6.82,1.41l5.26,26.44c-1.63-1.12-3.47-1.82-5.52-2.1-2.05-.28-4.09-.18-6.14,.3-2.04,.48-4.03,1.38-5.97,2.7s-3.62,2.92-5.05,4.8c-1.43,1.88-2.54,4.19-3.32,6.93-.78,2.74-1.05,5.69-.8,8.84,.06,.32,.13,.76,.21,1.35,.07,.58,.14,1.03,.2,1.35l2.83,14.23-28.65,5.57Z"/>
      <path class="cls-1" d="M547.72,71.69c-4.17,3.28-6.35,7.28-6.53,12-.1,3.95,1.21,7.23,3.92,9.86,3.16,3.04,7.13,4.04,11.9,3.02,3.91-.79,7.9-2.98,11.95-6.59l-.13,26.83c-2.5,2.77-5.26,5.11-8.28,7.03s-6.03,3.32-9.03,4.19c-3,.87-5.79,1.44-8.38,1.71-2.59,.27-5.1,.32-7.55,.15-9.53-.73-16.41-4.19-20.66-10.37-3.56-5.17-4.67-11.3-3.33-18.39,1.3-7.04,4.69-13.25,10.17-18.62,6.38-6.26,14.26-9.94,23.63-11.07-12.34-.54-22.17,3.7-29.51,12.73l.08-17.46,53.09,.25-.04,8.28c-.01,2.54-.5,4.79-1.47,6.76-.97,1.97-2.21,3.5-3.72,4.61-1.51,1.1-3.1,1.93-4.75,2.48-1.65,.56-3.29,.83-4.92,.83-2.36-.01-4.37-.81-6.01-2.39-1.64-1.58-2.59-3.72-2.84-6.42-.25-2.7,.55-5.84,2.4-9.41Z"/>
      <path class="cls-1" d="M580.24,93.39c5.07-6.53,11.53-11.43,19.38-14.7,7.85-3.27,17.08-4.51,27.68-3.72,2.18,.09,6.44,.88,12.79,2.38,6.35,1.5,11.06,3.29,14.13,5.37l-3.25,18.52c-3.82,2-7.19,2.1-10.1,.29-2.13-1.3-3.32-3.23-3.58-5.77-.35-3.21,.98-5.92,3.97-8.15,1-.73,2.14-1.35,3.43-1.87-2.99,1-5.45,2.51-7.4,4.53-1.95,2.02-3.19,4.07-3.75,6.17-.55,2.09-.59,4.09-.12,5.99,.47,1.9,1.44,3.31,2.89,4.21,2.28,1.37,4.78,1.83,7.51,1.38,2.72-.45,4.93-1.72,6.62-3.8l-5.37,30.6c-2.47,2.56-5.31,4.19-8.51,4.89-3.2,.7-6.2,.54-9-.47-2.8-1.01-5.3-2.78-7.5-5.3-2.2-2.53-3.6-5.49-4.21-8.91-.47-2.98-.41-6.12,.16-9.42,.58-3.3,1.76-6.65,3.53-10.07,1.78-3.41,3.81-6.56,6.09-9.44,2.28-2.88,4.92-5.38,7.92-7.5,3-2.13,5.98-3.54,8.96-4.26-4.23,.79-8.1,2.37-11.62,4.75-3.52,2.38-6.52,5.19-9.01,8.42-2.49,3.23-4.74,6.47-6.75,9.7-2.01,3.23-4.14,6.55-6.39,9.94-2.25,3.39-4.36,6.01-6.34,7.83-5.06,5.06-10.28,7.23-15.65,6.52-4.4-.59-7.94-2.95-10.6-7.09-2.96-4.6-3.92-9.94-2.9-16.02,.87-5.2,3.19-10.2,6.97-15Zm14.61,.85c-.19,1.81,.56,3.09,2.27,3.85,1.71,.76,3.65,.7,5.83-.2,1.46-.57,3.38-1.62,5.76-3.15,2.38-1.54,4.73-3.05,7.06-4.55,2.33-1.5,4.88-2.94,7.64-4.33,2.76-1.38,5.77-2.38,9.02-2.99,3.25-.61,6.46-.64,9.63-.1-3.31-1.38-7.69-2.18-13.13-2.37-5.44-.2-10.82,.25-16.14,1.34-5.16,1.16-9.43,2.93-12.81,5.32s-5.08,4.78-5.13,7.19Z"/>
      <path class="cls-1" d="M703.06,152.04c-.63,1.79-1.59,3.14-2.88,4.06-1.29,.92-2.76,1.41-4.39,1.47-1.64,.06-3.12-.04-4.43-.27-1.32-.24-2.67-.6-4.05-1.08l-42.47-14.59,42.48-48.41-7.65,6.14c-11.58,8.9-18.64,12.74-21.19,11.53-.81-.41-1.11-1.32-.91-2.74l8.82-25.12c-.05,1.73,.74,3.18,2.36,4.33s3.59,1.94,5.9,2.35c2.31,.41,4.64,.71,6.96,.89,2.33,.18,4.3,.23,5.93,.15l2.49-.1-10.17,47.56c-13.73,2.02-23.52,2.94-29.36,2.77l.52,.18c2.76,.48,6.14,.79,10.12,.92,3.99,.13,8.34,0,13.07-.37s9.22-1.01,13.47-1.9c4.26-.88,8.12-2.22,11.59-4.02,3.48-1.79,5.88-3.91,7.21-6.35l-3.42,22.62Z"/>
      <path class="cls-1" d="M716.22,131.74c2.09-2.29,4.29-4.17,6.62-5.63,2.32-1.47,4.82-2.67,7.49-3.62,2.67-.95,5.37-1.55,8.1-1.82,2.73-.26,5.51-.34,8.35-.26,2.84,.09,5.62,.44,8.32,1.05,2.71,.61,5.37,1.31,7.98,2.1,2.61,.79,5.04,1.77,7.3,2.94s4.37,2.36,6.36,3.56l-.57,1.48c-.38,.99-.77,1.91-1.17,2.77-.4,.86-.97,1.95-1.71,3.28-.74,1.32-1.6,2.51-2.57,3.55-.98,1.04-2.08,2.05-3.3,3.04-1.22,.98-2.68,1.74-4.35,2.27-1.67,.53-3.47,.78-5.38,.76-4.75-.02-8.09-1.23-10.01-3.61-1.67-2.08-1.91-4.51-.72-7.31,1.32-3.23,3.9-5.58,7.74-7.06,5.56-2.15,11.83-1.58,18.78,1.7-1.95-1.54-4.47-2.69-7.58-3.46-3.11-.77-6.28-1.05-9.52-.85-3.25,.2-6.37,.89-9.38,2.04-3.01,1.16-5.43,2.91-7.24,5.24-1.81,2.34-2.85,5.28-3.09,8.83-.11,2.75,.71,5.22,2.46,7.41s4.09,3.75,7.03,4.71c2.94,.96,6.09,1.42,9.45,1.39,3.36-.03,6.77-.86,10.24-2.49,3.46-1.63,6.41-3.94,8.83-6.92l.11,.06-14.99,28.73c-2.67,1.95-5.65,3.33-8.93,4.14s-6.58,1.07-9.89,.77c-3.3-.3-6.6-1.05-9.89-2.26s-6.34-2.76-9.15-4.67c-2.81-1.91-5.29-4.16-7.44-6.76-2.15-2.6-3.8-5.33-4.93-8.2-1.14-2.87-1.63-5.97-1.48-9.29,.15-3.32,1.06-6.58,2.72-9.76,1.53-2.94,3.34-5.55,5.43-7.84Z"/>
      <path class="cls-1" d="M784.13,155.86c4.12-1.97,8.38-3.16,12.79-3.57s8.52-.13,12.34,.85c3.82,.98,7.3,2.64,10.46,4.99,3.16,2.35,5.6,5.22,7.34,8.61,2.12,4.17,2.78,8.75,1.97,13.75-.81,5-2.83,9.63-6.06,13.88,1.42,.87,3.29,1.62,5.6,2.24l-16.17,21.99c-1.52-.4-3.63-1.59-6.32-3.58s-4.95-4.24-6.78-6.75c-7.13,1.34-13.8,.73-19.99-1.84-6.2-2.57-10.7-6.63-13.51-12.19-2.04-4.55-2.64-9.36-1.79-14.4,.84-5.05,3.05-9.73,6.62-14.03,3.57-4.31,8.07-7.62,13.5-9.94Zm10.08,3.14c-4.15,2.49-7.06,5.68-8.73,9.56-1.67,3.88-1.56,7.3,.34,10.27,1.25,1.79,2.9,3.14,4.97,4.03-.28-1.75-.41-3.69-.4-5.82-.01-4.09,1-7.81,3.03-11.16,2.03-3.35,4.42-5.85,7.18-7.5,2.75-1.65,5.44-2.51,8.05-2.57l.65-.06c-5.04-.89-10.07,.2-15.09,3.26Zm14.14,4.2c-2.15,3.19-2.91,6.64-2.29,10.35,.62,3.71,2.3,7.2,5.03,10.46,2.67-2.06,4.88-4.36,6.62-6.89,1.74-2.54,2.74-5.22,3.02-8.06,.27-2.84-.34-5.23-1.84-7.16l-.92-1.11c-1.45-1.04-3.1-1.36-4.94-.94s-3.41,1.54-4.69,3.35Z"/>
      <path class="cls-1" d="M874.25,212.06c-5.3-.54-9.69,.81-13.15,4.04-2.87,2.75-4.26,6.01-4.18,9.76,.11,4.36,2.23,7.82,6.36,10.39,3.35,2.15,7.75,3.33,13.19,3.57l-19.08,19.07c-3.74,.24-7.37,.01-10.89-.72-3.52-.72-6.66-1.81-9.41-3.26-2.76-1.45-5.16-2.98-7.2-4.58s-3.87-3.31-5.49-5.12c-6.28-7.12-8.76-14.35-7.41-21.71,1.12-6.16,4.66-11.3,10.63-15.44,5.91-4.13,12.72-6.22,20.44-6.26,8.99-.04,17.22,2.77,24.71,8.46-8.43-8.93-18.45-12.71-30.08-11.34l12.42-12.41,37.74,36.94-5.89,5.88c-1.8,1.8-3.75,3.07-5.83,3.81-2.08,.74-4.05,.97-5.92,.71-1.86-.26-3.57-.77-5.15-1.51-1.57-.75-2.94-1.69-4.1-2.82-1.68-1.64-2.55-3.6-2.6-5.86s.78-4.45,2.51-6.55c1.73-2.1,4.52-3.79,8.37-5.07Z"/>
      <path class="cls-1" d="M850.78,269.29l50.44-37.2,23.73,31.49c-1.6-.43-3.8-.9-6.62-1.41s-6.75-.95-11.79-1.33c-5.04-.38-10.11-.46-15.22-.23-5.11,.23-10.71,1.05-16.8,2.48-6.09,1.43-11.64,3.46-16.66,6.1,12.84-5,24.34-6.12,34.5-3.36,7.64,2.05,13.3,5.89,16.99,11.51,3.28,4.97,4.29,10.18,3.02,15.64-.85,3.59-2.65,6.86-5.41,9.8-3.33,3.46-7.38,6.07-12.13,7.81-4.75,1.74-8.54,2.43-11.37,2.05l-16.06-21.32c3.52,1.02,7.32,1.01,11.42-.06,4.1-1.06,6.87-3.1,8.3-6.12,.83-1.87,.96-3.7,.39-5.49-.57-1.8-1.62-3.36-3.15-4.69-1.53-1.33-3.42-2.48-5.65-3.45-2.23-.97-4.54-1.65-6.92-2.05-2.39-.4-4.78-.5-7.19-.28-2.4,.22-4.49,.77-6.25,1.67,6.19-1.1,11.2-.5,15.06,1.78,2.92,1.72,4.39,3.9,4.4,6.55-.02,1.52-.62,2.89-1.78,4.11-2.84,2.64-6.89,3.77-12.16,3.38l-13.11-17.39Z"/>
      <path class="cls-1" d="M936.59,320.68c-.72,5.41,.59,11.4,3.94,17.99,3.25,6.41,7.31,11,12.18,13.77l-17.2,8.54c.13-6.47-1.18-12.42-3.94-17.86-2.87-5.65-6.93-10.29-12.18-13.9l17.2-8.54Z"/>
      <path class="cls-1" d="M968.53,380.91c4.77,1.82,9.83,5.22,15.18,10.2,5.35,4.97,8.94,9.5,10.77,13.59l-19.6,5.59,.27,.05c4.39,.97,8.94,2.74,13.63,5.32,4.69,2.58,8.58,5.45,11.66,8.59l-19.84,5.66c9.48,2.71,17.97,7.24,25.46,13.62l-60.58,17.28-5.52-18.93c2.47-.83,5.66-1.76,9.58-2.79,3.91-1.04,7.79-1.98,11.63-2.85,3.84-.86,8.08-1.48,12.72-1.84,4.64-.36,8.94-.3,12.89,.16-3.39-1.17-7.2-1.86-11.41-2.06-4.21-.2-8.66,.07-13.34,.82s-8.6,1.49-11.78,2.23c-3.17,.74-6.94,1.71-11.29,2.91l-5.89-20.21c2.68-.85,5.63-1.62,8.86-2.31,3.23-.69,7.03-1.33,11.39-1.93,4.36-.6,8.99-.84,13.87-.72,4.89,.12,9.51,.66,13.86,1.64-6.1-2.75-13.9-4-23.41-3.76-9.51,.24-18.06,1.36-25.66,3.36l-5.76-19.74c5.36-1.53,11.1-2.39,17.21-2.58,6.11-.2,11.69,.11,16.73,.92,5.04,.8,9.84,1.84,14.39,3.12,4.55,1.28,8.21,2.52,11,3.72,2.79,1.2,4.72,2.2,5.81,3.02-1.14-1.01-2.75-2.13-4.82-3.34-2.07-1.21-4.75-2.48-8.04-3.8-3.29-1.32-6.81-2.51-10.57-3.56-3.76-1.04-8.05-1.89-12.89-2.55-4.83-.65-9.68-.94-14.52-.86l28-7.99Z"/>
      <path class="cls-1" d="M989.86,461.57c4.25,1.66,8.03,3.96,11.32,6.89,3.29,2.93,5.87,6.11,7.73,9.55s2.99,7.1,3.38,10.99c.39,3.89-.08,7.61-1.43,11.17-1.66,4.37-4.62,7.95-8.89,10.75-4.26,2.8-9.07,4.47-14.42,5,.31,1.63,1.02,3.49,2.13,5.59l-27.31,3.13c-.74-1.37-1.28-3.72-1.62-7.02-.35-3.31-.2-6.48,.43-9.51-5.83-4.28-9.89-9.54-12.18-15.79-2.29-6.25-2.32-12.27-.09-18.09,2.01-4.57,5.17-8.26,9.5-11.07,4.32-2.8,9.3-4.37,14.92-4.69,5.62-.32,11.13,.71,16.53,3.09Zm4.49,9.46c-4.67-1.33-9.01-1.29-13.02,.13-4.01,1.41-6.48,3.82-7.4,7.21-.49,2.12-.36,4.24,.37,6.34,1.11-1.38,2.46-2.79,4.05-4.24,3.04-2.78,6.49-4.56,10.35-5.35,3.86-.79,7.34-.74,10.44,.14,3.09,.88,5.55,2.25,7.37,4.11l.48,.43c-2.76-4.27-6.97-7.19-12.65-8.77Zm6.46,13.13c-3.83,.6-6.91,2.38-9.24,5.35-2.34,2.96-3.8,6.55-4.37,10.75,3.34,.55,6.55,.6,9.61,.15,3.06-.46,5.74-1.54,8.04-3.27,2.3-1.72,3.66-3.78,4.07-6.18l.2-1.42c-.21-1.76-1.09-3.17-2.65-4.23s-3.45-1.44-5.67-1.14Z"/>
      <path class="cls-1" d="M995.32,527.79c8.3,.39,13.67,3.14,16.12,8.25,2.22,4.74,1.62,10.52-1.81,17.34-3.78,7.49-10.05,14.43-18.79,20.84-3.42,2.5-7.12,4.79-11.09,6.86,.37-.19,1.1-.51,2.18-.96,1.08-.45,2.02-.89,2.82-1.29,5.35-2.7,10.49-5.19,15.43-7.48,4.94-2.29,8.56-3.91,10.84-4.85l3.43-1.47-1.54,32.36-62.36-2.91c6.66-2.92,13.75-6.21,21.27-9.9-5.06-3.42-9.21-6.96-12.46-10.6-3.25-3.64-5.49-7.12-6.72-10.45-1.23-3.33-1.74-6.58-1.52-9.78,.21-3.2,1.14-6.14,2.78-8.82,1.63-2.69,3.83-5.15,6.59-7.37,2.76-2.23,5.93-4.1,9.5-5.61,3.58-1.51,7.55-2.63,11.9-3.38,4.36-.74,8.83-1,13.43-.79Zm-18.82,45.76c-.15,.6-.44,1.62-.85,3.08-.42,1.45-.7,2.54-.86,3.26,11.92-14.89,19.54-26.68,22.85-35.35,1.67-4.28,1.85-6.71,.53-7.29-1.2-.5-3.12,.78-5.75,3.85-4.83,5.58-9.29,13.88-13.36,24.9-.89,2.46-1.74,4.98-2.56,7.56Z"/>
      <path class="cls-1" d="M994.72,609.37c4.2,4.15,7.17,9.21,8.89,15.16,1.73,5.95,1.92,12.1,.59,18.45-.66,3.16-1.63,5.97-2.9,8.45-1.27,2.48-2.68,4.44-4.23,5.89-1.55,1.45-3.21,2.58-4.98,3.39-1.77,.81-3.54,1.12-5.31,.94s-3.44-.67-5-1.46c-1.56-.79-2.96-2.03-4.18-3.7-1.23-1.67-2.16-3.66-2.8-5.98-.44-1.69-.98-3.81-1.63-6.35s-1.16-4.52-1.53-5.93c-.37-1.42-.84-3.13-1.42-5.14-.58-2.01-1.08-3.6-1.53-4.76-.44-1.16-1-2.51-1.68-4.05-.67-1.54-1.36-2.8-2.04-3.78s-1.49-2.01-2.41-3.09c-.92-1.08-1.93-2.01-3.03-2.81-1.1-.8-2.32-1.55-3.68-2.23,2.79,1.97,5.31,5.17,7.56,9.61,2.25,4.43,3.94,9.04,5.05,13.81,1.12,4.78,1.77,9.45,1.95,14.01,.18,4.56-.23,8.08-1.25,10.54l-22.43-4.61c-2.92-4.14-4.9-8.65-5.95-13.54s-1.04-9.9,.04-15.02c1.31-6.23,3.95-11.6,7.91-16.12,3.96-4.51,8.69-7.67,14.19-9.46,5.49-1.8,11.12-1.97,16.9-.54,5.74,1.38,10.71,4.16,14.91,8.31Zm-29.04,5.94c2.41,1.9,4.35,4.02,5.83,6.39,1.48,2.36,2.72,4.62,3.72,6.78,1,2.16,1.97,4.42,2.91,6.77,.94,2.35,1.76,4.07,2.44,5.16,.82,1.45,1.79,2.41,2.91,2.91,1.12,.5,2.14,.56,3.05,.19,.91-.37,1.56-.98,1.95-1.85,.96-2.02,1.02-4.36,.16-7-.86-2.64-2.41-5.24-4.64-7.77-2.23-2.54-4.81-4.94-7.72-7.2s-6.06-4.18-9.43-5.73c-3.38-1.56-6.54-2.54-9.49-2.94,3.12,.97,5.89,2.4,8.3,4.3Z"/>
      <path class="cls-1" d="M937.43,653.17c13.85,10.07,29.59,25.68,47.22,46.84-1.24-1.47-2.61-3.22-4.12-5.24-1.51-2.02-3.25-4.5-5.2-7.43-1.96-2.94-3.65-5.71-5.06-8.34-1.42-2.63-2.48-5.21-3.18-7.73-.7-2.52-.73-4.48-.08-5.88l28.6,10.27c-1.53,1.33-3.1,3.44-4.72,6.31-1.62,2.87-2.92,6.13-3.91,9.78-.99,3.65-1.26,6.86-.81,9.64l-37.61-13.5c6.11,2.84,11.42,5.98,15.94,9.42,4.52,3.44,7.91,6.76,10.16,9.95s3.76,6.26,4.51,9.24c.75,2.97,.67,5.55-.25,7.75s-2.5,3.88-4.74,5.05l-25.61-9.2c1.81-.81,3.37-2,4.67-3.6,1.3-1.59,2.27-3.37,2.91-5.35,.64-1.98,.89-4.13,.74-6.45s-.66-4.57-1.55-6.76-2.32-4.31-4.28-6.39-4.38-3.82-7.24-5.23c-.31-.11-.73-.29-1.27-.52-.54-.24-.96-.41-1.27-.52l-13.78-4.95,9.96-27.15Z"/>
      <path class="cls-1" d="M970.63,738.17c-1.83,.61-3.3,1.54-4.4,2.77-1.11,1.24-1.83,2.58-2.17,4.03-.34,1.45-.64,3.01-.9,4.69-.26,1.67-.44,3.27-.54,4.78-.1,1.51-.45,2.94-1.06,4.29-.61,1.35-1.45,2.39-2.52,3.15-1.2,.82-2.56,1.19-4.08,1.12s-3.14-.76-4.85-2.06c-1.72-1.3-3.23-3.21-4.53-5.71-.27-.52-.42-.83-.45-.94,.03,.11,.18,.42,.45,.94,1.55,3.14,2.66,6.39,3.32,9.75,.67,3.35,.91,6.5,.74,9.44-.17,2.94-.74,5.66-1.69,8.16s-2.19,4.6-3.73,6.32-3.42,2.9-5.64,3.55c-2.22,.65-4.61,.72-7.16,.2s-5.4-1.87-8.54-4.07-6.34-5.19-9.57-8.98c1.68-1.02,3.1-2.46,4.26-4.34,1.16-1.87,1.93-3.88,2.31-6.02s.42-4.34,.12-6.59-1.04-4.28-2.23-6.08c-1.18-1.8-2.77-3.29-4.75-4.49s-4.48-1.81-7.49-1.84c4.31,.78,7.42,2.38,9.36,4.79,1.94,2.41,2.97,5.04,3.11,7.87s-.46,5.46-1.79,7.86c-1.87,3.35-4.64,5.51-8.32,6.47-3.68,.96-7.52,.32-11.53-1.91-3.94-2.2-6.34-5.27-7.21-9.21-.87-3.95-.2-7.9,2-11.85,1.75-3.14,3.98-5.52,6.7-7.14,2.72-1.62,5.6-2.48,8.65-2.56,3.05-.09,6.22,.5,9.52,1.74s6.4,3.03,9.3,5.35c2.9,2.31,5.56,5.21,7.98,8.7,2.43,3.49,4.32,7.28,5.66,11.37-.17-2.53-.81-5.26-1.92-8.19-1.11-2.93-2.76-5.91-4.96-8.95-2.19-3.03-4.74-5.74-7.65-8.1-2.91-2.37-6.47-4.22-10.68-5.55-4.21-1.33-8.68-1.81-13.4-1.44l15.22-27.3c3.9,1.85,7.57,4.3,11.01,7.35,3.44,3.05,6.28,6.14,8.54,9.28,2.25,3.13,4.23,6.37,5.94,9.69,1.71,3.32,2.97,6.21,3.79,8.66,.82,2.45,1.33,4.49,1.54,6.12,.81-1.95,1.23-3.95,1.28-5.99,.05-2.05-.18-3.9-.68-5.54-.5-1.65-1.06-3.35-1.7-5.1-.63-1.75-1.21-3.33-1.75-4.75s-.83-2.88-.88-4.38,.26-2.85,.93-4.05l27.02,14.73Z"/>
      <path class="cls-1" d="M916.24,826.27c-3.69,6.34-7.5,11.97-11.43,16.88-3.92,4.91-7.71,8.88-11.35,11.93-3.65,3.05-7.3,5.52-10.97,7.41-3.67,1.89-7.11,3.15-10.34,3.76-3.22,.61-6.35,.77-9.38,.47-3.03-.3-5.77-.98-8.21-2.05-2.44-1.07-4.68-2.45-6.71-4.13-3.82-3.21-6.37-6.97-7.65-11.31-1.28-4.34-.97-8.37,.93-12.13,1.9-3.75,5.73-6.64,11.5-8.68,4.17-1.18,8.47-1.32,12.91-.4,4.44,.91,8.38,2.51,11.83,4.8,3.45,2.29,6.44,5,8.98,8.15,2.54,3.15,4.22,6.33,5.04,9.54-.2-3.96-1.63-7.85-4.28-11.7-2.65-3.84-6.13-7.23-10.44-10.16-4.31-2.93-9.48-5.28-15.51-7.03-6.03-1.75-12.3-2.55-18.81-2.41l28.11-31.23c2.99,2.79,5.88,5.91,8.66,9.37,2.78,3.45,5.43,7.35,7.95,11.7s4.55,8.71,6.09,13.09c1.54,4.38,2.41,8.96,2.6,13.74,.19,4.78-.48,9.25-2.03,13.38,3.96-5.85,5.37-13.24,4.26-22.18-1.11-8.94-4.19-17.27-9.23-25l27.47,24.19Zm-37.61,19.43c-5.03-2.04-9.9-2.51-14.6-1.41-1.37,.25-2.57,.69-3.6,1.32-1.03,.63-1.77,1.33-2.21,2.1s-.67,1.61-.67,2.52c0,.91,.32,1.78,.97,2.6,.65,.82,1.58,1.59,2.77,2.32,4.36,2.49,9.22,3.35,14.58,2.57s9.69-2.55,12.99-5.31c-1.79-2.44-5.2-4.67-10.24-6.71Z"/>
      <path class="cls-1" d="M824.2,838.63c6.67,15.67,12.09,37.06,16.25,64.17-.3-1.9-.57-4.09-.82-6.59-.25-2.5-.46-5.51-.62-9.01-.16-3.51-.17-6.75-.02-9.73,.15-2.98,.58-5.73,1.28-8.25,.71-2.52,1.7-4.22,2.98-5.09l19.23,23.32c-2.01,.37-4.45,1.38-7.32,3.02-2.87,1.64-5.68,3.78-8.43,6.41-2.74,2.63-4.64,5.25-5.69,7.87l-25.29-30.67c3.77,5.53,6.71,10.92,8.8,16.17,2.09,5.25,3.28,9.81,3.56,13.69,.28,3.88-.02,7.28-.92,10.22-.9,2.93-2.31,5.11-4.23,6.53-1.93,1.43-4.16,2.07-6.69,1.93l-17.22-20.89c1.98,.23,3.93-.01,5.87-.72,1.94-.71,3.7-1.75,5.27-3.12,1.57-1.38,2.9-3.1,3.98-5.17,1.08-2.07,1.8-4.26,2.17-6.59,.37-2.33,.25-4.88-.36-7.66-.61-2.78-1.78-5.5-3.51-8.17-.2-.25-.48-.61-.82-1.09-.34-.48-.62-.84-.82-1.09l-9.27-11.23,22.63-18.26Z"/>
      <path class="cls-1" d="M795.81,916.2c.18,4.52-.43,8.86-1.81,13.02-1.38,4.16-3.29,7.78-5.72,10.84-2.43,3.07-5.37,5.56-8.8,7.49s-7.08,2.99-10.91,3.21c-4.71,.25-9.22-.98-13.53-3.72-4.31-2.73-7.79-6.41-10.44-11.04-1.38,.94-2.82,2.34-4.32,4.19l-13.9-23.46c.97-1.22,2.92-2.65,5.84-4.3,2.92-1.65,5.91-2.79,8.97-3.45,1.61-7,4.84-12.8,9.7-17.39,4.86-4.59,10.42-7.05,16.7-7.37,5.03-.02,9.72,1.35,14.06,4.14s7.79,6.65,10.35,11.61c2.56,4.96,3.83,10.36,3.8,16.22Zm-16.49,19.01c-2.1-3.22-4.99-5.29-8.67-6.21-3.69-.92-7.59-.8-11.71,.38,.84,3.25,2.09,6.17,3.74,8.76,1.65,2.59,3.74,4.58,6.26,5.96,2.52,1.39,4.98,1.79,7.36,1.2l1.4-.39c1.55-.9,2.49-2.26,2.85-4.1s-.06-3.7-1.22-5.59Zm9.54-11.14c-.65-4.76-2.44-8.67-5.36-11.74-2.92-3.06-6.14-4.33-9.64-3.79-2.16,.42-4.07,1.38-5.72,2.9,1.73,.45,3.58,1.1,5.55,1.97,3.8,1.63,6.84,4.03,9.12,7.21,2.29,3.18,3.65,6.35,4.08,9.51,.43,3.15,.15,5.93-.83,8.33l-.21,.61c2.84-4.21,3.85-9.21,3.02-14.98Z"/>
      <path class="cls-1" d="M707.15,975.46c2.68-4.56,3.23-9.07,1.67-13.53-1.36-3.71-3.79-6.31-7.28-7.78-4.06-1.69-8.13-1.2-12.19,1.48-3.36,2.14-6.26,5.62-8.7,10.44l-9.75-25.04c1.31-3.48,3.02-6.65,5.13-9.53,2.11-2.88,4.4-5.26,6.87-7.15s4.86-3.43,7.17-4.61c2.31-1.18,4.64-2.13,6.97-2.86,9.14-2.75,16.83-2,23.06,2.22,5.22,3.54,8.51,8.85,9.87,15.93,1.38,7.02,.51,14.03-2.62,21.01-3.65,8.12-9.62,14.39-17.94,18.82,11.69-3.94,19.29-11.44,22.8-22.48l6.35,16.3-49.54,18.88-3.01-7.73c-.92-2.37-1.29-4.64-1.12-6.82,.18-2.18,.77-4.06,1.77-5.63,1-1.57,2.17-2.91,3.51-4.02,1.34-1.11,2.76-1.96,4.28-2.54,2.2-.84,4.36-.82,6.47,.06,2.11,.88,3.78,2.53,5.01,4.96,1.23,2.42,1.64,5.64,1.23,9.64Z"/>
      <path class="cls-1" d="M679.52,989.94c-3.26-.91-6.94-2.65-11.04-5.19-4.1-2.55-8.1-5.69-12.01-9.44,3.89,4.37,5.94,8.37,6.15,12,.21,3.63-1.49,6.49-5.1,8.59-1.77,1.02-3.91,1.8-6.41,2.34-2.51,.55-5.06,.84-7.67,.87-2.6,.03-5.32,.16-8.15,.38-2.83,.22-5.46,.51-7.89,.85-2.43,.34-4.72,1.09-6.88,2.24-2.16,1.15-3.85,2.68-5.07,4.62l-5.57-24.16c1.87-2.03,4.2-3.59,6.97-4.67,2.78-1.09,5.79-1.7,9.03-1.85,3.25-.16,6.22-.16,8.93,0s5.65,.42,8.83,.8c3.18,.38,5.36,.58,6.53,.61,2.62,.11,4.21-.23,4.78-1.02,.57-.79,.09-2.07-1.45-3.83-.03-.12-.2-.33-.52-.63,.84,1.09,1.02,2.04,.56,2.85-.46,.81-1.46,1.14-3,.99-1.09,0-2.56-.21-4.43-.61-1.87-.4-3.72-.84-5.57-1.31-1.84-.47-3.94-.93-6.3-1.37-2.36-.44-4.57-.73-6.65-.86s-4.27-.03-6.57,.3c-2.3,.33-4.32,1.02-6.04,2.08l-7.04-30.52c3.54,.69,7.63,2.39,12.27,5.1,4.64,2.71,8.73,5.52,12.28,8.42,3.55,2.9,7.14,5.86,10.79,8.88,3.64,3.02,6.07,4.91,7.29,5.67l.12-.03c.83,.52,1.22,.49,1.17-.08,0-.33-.17-.73-.52-1.19-5.75-5.02-10.73-10.4-14.93-16.12-4.2-5.73-6.83-10.87-7.88-15.42l-.05-.23,28.05-6.33,5.18,22.44c-1.49,.21-3.47,.07-5.93-.43-2.45-.5-5.09-1.29-7.91-2.37-2.82-1.08-5.65-2.65-8.51-4.71s-5.21-4.37-7.05-6.93c.37,1.24,1.4,2.9,3.09,4.97,1.69,2.08,4.02,4.23,7,6.45,9.01,6.27,18.91,8.19,29.71,5.75l7.41,32.11Z"/>
      <path class="cls-1" d="M601.18,988.74c-1.88,4.13-4.38,7.74-7.49,10.86-3.11,3.11-6.45,5.51-10.01,7.18s-7.31,2.61-11.26,2.81c-3.95,.2-7.68-.44-11.22-1.94-4.33-1.85-7.81-4.95-10.43-9.3-2.62-4.35-4.08-9.18-4.36-14.49-1.66,.23-3.57,.85-5.75,1.84l-1.85-27.13c1.42-.66,3.81-1.08,7.17-1.27,3.35-.18,6.55,.11,9.58,.87,4.6-5.56,10.11-9.31,16.53-11.27,6.42-1.97,12.51-1.7,18.27,.78,4.52,2.2,8.09,5.5,10.72,9.91,2.63,4.4,3.97,9.39,4.02,14.96,.05,5.57-1.25,10.97-3.92,16.19Zm-23.34,9.74c-.42-3.81-2.07-6.94-4.96-9.39-2.88-2.45-6.43-4.06-10.65-4.83-.71,3.28-.92,6.44-.61,9.49,.31,3.05,1.28,5.75,2.91,8.1,1.63,2.35,3.65,3.79,6.05,4.32l1.43,.27c1.79-.12,3.25-.92,4.4-2.41,1.14-1.49,1.62-3.34,1.43-5.55Zm13.57-5.75c1.57-4.55,1.73-8.84,.5-12.87-1.23-4.04-3.54-6.59-6.92-7.65-2.12-.58-4.26-.56-6.42,.07,1.35,1.16,2.71,2.56,4.08,4.21,2.66,3.13,4.3,6.62,4.91,10.48,.61,3.85,.4,7.29-.64,10.31-1.04,3.02-2.54,5.38-4.51,7.09l-.46,.45c4.44-2.52,7.6-6.54,9.46-12.08Z"/>
      <path class="cls-1" d="M479.25,953.31c.16-1.89,.75-3.44,1.78-4.65s2.32-2.04,3.89-2.49c1.57-.46,3.03-.73,4.36-.82,1.34-.09,2.74-.07,4.2,.05l44.8,3.74-29.05,57.31,5.88-7.82c8.99-11.46,14.87-16.91,17.64-16.36,.88,.19,1.41,1.01,1.57,2.44l-2.26,26.5c-.39-1.69-1.51-2.9-3.37-3.62-1.86-.72-3.96-1-6.3-.83-2.34,.17-4.67,.45-6.97,.84-2.3,.39-4.23,.83-5.78,1.31l-2.39,.71-2.05-48.56c12.8-5.32,22.05-8.61,27.76-9.87l-.55-.05c-2.8,.21-6.14,.74-10.04,1.59-3.89,.85-8.08,2.03-12.56,3.56-4.48,1.53-8.68,3.24-12.58,5.14-3.9,1.9-7.31,4.14-10.23,6.73-2.92,2.59-4.72,5.22-5.4,7.92l-2.35-22.75Z"/>
      <path class="cls-1" d="M463.22,983.61c-.14-.32-.28-.6-.42-.86-.13-.25-.24-.44-.32-.56-.08-.12-.15-.22-.22-.29-.07-.07-.12-.14-.15-.18h-.06c.33,.22,.71,.66,1.16,1.33,1.79,2.01,2.84,4.16,3.16,6.46,.32,2.31-.05,4.39-1.1,6.25-1.05,1.87-2.46,3.46-4.23,4.79-1.77,1.33-3.92,2.12-6.44,2.37-2.52,.25-5.03-.16-7.51-1.23-.75-.4-1.95-1.07-3.61-2.02-1.65-.95-2.87-1.61-3.64-2-.77-.38-1.74-.67-2.91-.86-1.17-.19-2.18-.09-3.06,.31l3.66-17.82c.45-1.39,1.38-2.45,2.77-3.17,1.39-.73,3.01-.96,4.85-.69,1.84,.27,3.72,1.17,5.65,2.71,.26,.18,1.36,1.11,3.32,2.8,1.96,1.68,3.18,2.7,3.64,3.04,1.8,1.96,3.37,2.63,4.7,1.99,.88-.44,1.17-1.12,.86-2.05-.01-.13-.05-.23-.12-.33Zm20.46-39.48c-3.68,2.14-7.08,4.58-10.2,7.32-3.12,2.74-5.84,5.72-8.16,8.93-2.32,3.21-3.83,6.6-4.53,10.19-.69,3.58-.34,6.99,1.08,10.24l-.27-.49c-1.82-1.85-4.98-4.75-9.46-8.72-4.49-3.97-7.68-7.08-9.58-9.35-8.77-10.32-8.29-19.01,1.44-26.1l39.69,7.98Z"/>
      <path class="cls-1" d="M419.63,975.36c-3.37,3.06-7.1,5.42-11.2,7.07-4.1,1.66-8.12,2.56-12.06,2.71-3.94,.15-7.76-.44-11.47-1.79-3.71-1.35-6.89-3.4-9.54-6.15-3.25-3.39-5.21-7.59-5.9-12.6-.69-5.02-.11-10.02,1.74-15.02-1.62-.43-3.62-.61-6.02-.54l9.07-25.67c1.57-.06,3.94,.49,7.1,1.62,3.16,1.14,5.98,2.64,8.46,4.53,6.44-3.32,13-4.64,19.68-3.95,6.68,.69,12.18,3.29,16.49,7.82,3.28,3.78,5.25,8.21,5.92,13.28,.67,5.07-.08,10.18-2.24,15.32-2.16,5.14-5.5,9.6-10.03,13.37Zm-25.33-.12c1.12-3.67,.85-7.19-.83-10.56-1.68-3.38-4.3-6.24-7.87-8.58-1.96,2.74-3.4,5.56-4.33,8.49-.93,2.92-1.1,5.78-.54,8.58,.57,2.8,1.85,4.9,3.85,6.32l1.21,.8c1.69,.58,3.36,.42,5-.51,1.64-.93,2.81-2.44,3.51-4.54Zm14.76-.02c3.25-3.57,5.1-7.46,5.57-11.65,.47-4.19-.64-7.43-3.33-9.73-1.72-1.36-3.7-2.17-5.93-2.43,.78,1.59,1.47,3.41,2.08,5.45,1.2,3.92,1.32,7.77,.35,11.55-.97,3.78-2.53,6.86-4.68,9.23-2.15,2.37-4.47,3.96-6.96,4.76l-.6,.24c5.09-.59,9.58-3.06,13.5-7.43Z"/>
      <path class="cls-1" d="M334.76,939.22c-2.43-4.89-6.89-9.16-13.37-12.81-6.3-3.55-12.25-5.13-17.86-4.76l9.51-16.55c3.52,5.45,7.95,9.69,13.29,12.69,5.56,3.13,11.53,4.75,17.93,4.87l-9.51,16.55Z"/>
      <path class="cls-1" d="M280.9,897.31c-2.53,1.79-5.1,3.16-7.68,4.1-2.59,.94-5.29,1.59-8.1,1.95-2.81,.36-5.58,.38-8.3,.06-2.72-.32-5.46-.83-8.21-1.52-2.76-.69-5.39-1.62-7.9-2.79-2.51-1.17-4.96-2.42-7.34-3.74-2.38-1.33-4.54-2.8-6.49-4.42-1.95-1.62-3.76-3.23-5.44-4.82l.87-1.32c.58-.88,1.16-1.7,1.74-2.46,.58-.75,1.37-1.7,2.38-2.84,1.01-1.14,2.1-2.11,3.28-2.92,1.18-.81,2.48-1.56,3.89-2.27,1.41-.7,2.99-1.13,4.74-1.29,1.75-.16,3.55-.03,5.42,.4,4.64,1.03,7.64,2.91,8.99,5.65,1.18,2.38,.89,4.81-.87,7.29-1.98,2.87-5.01,4.63-9.09,5.26-5.9,.92-11.89-.96-17.97-5.63,1.57,1.91,3.79,3.58,6.65,4.98,2.87,1.41,5.91,2.36,9.12,2.85,3.21,.49,6.42,.49,9.61,0,3.19-.49,5.93-1.69,8.21-3.59,2.28-1.9,3.93-4.55,4.93-7.97,.7-2.67,.44-5.25-.8-7.76-1.23-2.5-3.18-4.53-5.85-6.09s-5.64-2.68-8.93-3.36-6.8-.6-10.54,.26c-3.74,.86-7.11,2.49-10.13,4.88l-.09-.08,20.86-24.89c3.03-1.34,6.24-2.05,9.62-2.15,3.39-.1,6.66,.35,9.82,1.35,3.16,1,6.22,2.43,9.17,4.3,2.95,1.88,5.59,4.04,7.92,6.5,2.33,2.46,4.26,5.19,5.8,8.18,1.54,2.99,2.56,6.01,3.05,9.05s.3,6.18-.57,9.39c-.87,3.22-2.46,6.2-4.77,8.96-2.13,2.54-4.46,4.71-7,6.5Z"/>
      <path class="cls-1" d="M209.03,874.82c-2.03-2.26-3.65-4.51-4.84-6.78-1.2-2.26-2.07-4.4-2.64-6.42-.56-2.02-.63-4.22-.2-6.63,.43-2.4,.92-4.54,1.47-6.4,.56-1.87,1.71-4.11,3.46-6.74,1.75-2.62,3.33-4.87,4.74-6.73,1.41-1.86,3.51-4.28,6.3-7.26,2.8-2.98,5.18-5.46,7.14-7.43,1.96-1.97,4.7-4.67,8.21-8.09-3.69,2.93-6.7,5.31-9.04,7.13-2.34,1.82-5.1,3.89-8.28,6.21-3.18,2.32-5.83,4.1-7.95,5.35-2.12,1.25-4.55,2.57-7.3,3.93-2.75,1.37-5.12,2.26-7.12,2.68-2,.42-4.18,.71-6.54,.87-2.36,.16-4.51-.12-6.44-.84-1.93-.72-3.93-1.76-5.99-3.1-2.06-1.34-4.05-3.08-5.97-5.21l26.22-23.13c1.3,2.9,3.22,5.08,5.74,6.55,2.53,1.47,5.4,2.4,8.62,2.8,3.22,.4,6.53,.34,9.94-.15,3.4-.49,6.64-1.28,9.7-2.36,3.06-1.08,5.69-2.35,7.88-3.79-1.62,2.08-3.11,4.6-4.48,7.56-1.37,2.96-2.46,6.13-3.27,9.49-.81,3.36-1.19,6.67-1.11,9.93,.07,3.25,.73,6.24,1.97,8.95,1.24,2.71,3.25,4.87,6.01,6.48l-26.22,23.13Z"/>
      <path class="cls-1" d="M146.07,800.82c-7.86-6.89-6.27-15.2,4.76-24.94,4.79-4.23,12.24-9.19,22.36-14.9-.19-1.79-1.57-4.25-4.14-7.37-2.57-3.12-5-5.45-7.29-6.98-.97,1.15-.79,3.28,.57,6.36,1.36,3.08,3.47,5.7,6.34,7.83l-34.45,19.42c-8.12-7.01-5.99-15.61,6.38-25.78,4.56-3.73,11.56-8.25,21-13.58,.07-1.43-1.17-3.49-3.71-6.19-2.54-2.7-4.94-4.7-7.2-6.03-.42,.65-.53,1.58-.33,2.79,.2,1.21,.88,2.69,2.04,4.45s2.73,3.4,4.73,4.91l-34.45,19.42c-4.05-3.93-5.51-8.27-4.41-13.02,1.13-4.95,4.69-9.39,10.68-13.32,6.83-4.5,14.74-7.01,23.72-7.53,10.66-.62,20.47,1.8,29.43,7.27l-16.99,9.57c4.6,0,9.73,1.17,15.4,3.49,5.67,2.32,10.06,4.67,13.16,7.04l-14.28,8.05c-2.27,1.28-3.67,2.25-4.22,2.93-1.37,1.19-2.14,2.63-2.29,4.32-.15,1.69,.17,3.35,.97,4.98,.8,1.64,1.74,3.12,2.82,4.46,1.08,1.34,2.18,2.42,3.3,3.22l-33.92,19.12Z"/>
      <path class="cls-1" d="M122.2,724.21c-5.81-1.24-11.06-3.9-15.77-7.98-4.71-4.08-8.24-9.14-10.6-15.2-1.17-3.01-1.9-5.89-2.19-8.65-.29-2.76-.18-5.17,.33-7.22,.51-2.05,1.29-3.89,2.34-5.52,1.05-1.63,2.36-2.84,3.95-3.64,1.59-.8,3.25-1.28,5-1.45,1.75-.17,3.59,.12,5.54,.87,1.95,.75,3.82,1.92,5.63,3.52,1.29,1.19,2.91,2.68,4.85,4.47,1.94,1.79,3.45,3.18,4.53,4.17,1.08,.99,2.42,2.17,4,3.56s2.88,2.44,3.89,3.18c1.01,.74,2.22,1.57,3.62,2.5,1.41,.93,2.67,1.63,3.79,2.08,1.12,.46,2.36,.89,3.72,1.31,1.36,.41,2.72,.66,4.09,.74,1.37,.09,2.8,.05,4.32-.09-3.42-.16-7.3-1.5-11.62-4.03-4.32-2.52-8.26-5.49-11.81-8.9s-6.66-6.99-9.32-10.73c-2.65-3.73-4.23-6.91-4.72-9.53l21.38-8.14c4.72,1.92,8.86,4.65,12.42,8.19s6.29,7.76,8.2,12.65c2.31,5.94,3.04,11.87,2.18,17.79-.86,5.92-3.11,11.1-6.74,15.55-3.64,4.45-8.27,7.62-13.91,9.5-5.58,1.91-11.28,2.25-17.09,1.01Zm21.16-20.56c-3.06-.3-5.86-1.05-8.4-2.24-2.54-1.19-4.82-2.43-6.84-3.71s-4.08-2.66-6.16-4.13c-2.08-1.47-3.71-2.49-4.88-3.03-1.48-.78-2.83-1.07-4.04-.89-1.22,.18-2.11,.67-2.67,1.47-.56,.8-.77,1.66-.62,2.6,.3,2.22,1.53,4.21,3.7,5.97,2.17,1.76,4.89,3.11,8.16,4.05,3.27,.94,6.75,1.58,10.43,1.92,3.69,.34,7.38,.26,11.07-.23,3.69-.5,6.89-1.37,9.59-2.62-3.16,.86-6.27,1.14-9.33,.84Z"/>
      <path class="cls-1" d="M145.65,656.04l-48.22,10.13-22.79-31.66c.42,.03,1.03,.07,1.81,.12s2.42,.2,4.91,.48,5.02,.61,7.58,1c2.56,.39,5.71,.99,9.45,1.82,3.74,.82,7.37,1.77,10.88,2.84l4.76,1.53c-15.9-5.6-27.42-12.03-34.56-19.3-5.55-5.67-7.6-10.96-6.16-15.88,1.48-4.76,5.98-8.22,13.51-10.38,1.02-.29,2.09-.56,3.2-.8,4.26-.9,8.5-1.33,12.71-1.31,4.21,.03,8.11,.45,11.7,1.28,3.59,.83,6.86,2.07,9.79,3.72,2.93,1.65,5.38,3.57,7.32,5.75,1.95,2.19,3.27,4.74,3.96,7.66,.69,2.92,.7,6,.02,9.23-.68,3.23-2.28,6.76-4.81,10.59-2.53,3.83-5.94,7.69-10.22,11.6,4.6,1.63,9.42,3.6,14.48,5.91,5.06,2.32,8.62,4.21,10.68,5.67Zm-28.72-15.65c-.23-.49-.63-1.3-1.21-2.43-.58-1.14-.99-2.01-1.25-2.61-5.73-11.39-11.76-20.05-18.07-25.98-3.39-3.16-5.85-4.64-7.39-4.44-1.34,.16-1.44,1.54-.3,4.14,2.41,5.42,8.66,12.99,18.74,22.69,2.88,2.77,6.04,5.65,9.47,8.63Z"/>
      <path class="cls-1" d="M93.68,583.64c-2.84,3.92-6.21,5.39-10.13,4.42-3.92-.97-7.47-4.15-10.65-9.53-2.12-3.45-3.72-7.15-4.82-11.09-1.1-3.95-1.67-7.82-1.73-11.63-.05-3.81,.47-7.51,1.57-11.11,1.1-3.6,2.68-6.81,4.75-9.65,2.07-2.83,4.78-5.22,8.14-7.17,3.36-1.95,7.14-3.17,11.36-3.69,2.22,8.33,4.46,18.88,6.71,31.64,.54,12.72-1.19,21.99-5.2,27.82Zm-3.77-27.41c-6.84,.31-12.2,1.62-16.09,3.93-2.42,1.44-3.56,2.8-3.42,4.09,.18,1.28,1.63,1.83,4.36,1.62,5.69-.33,13.73-3.68,24.12-10.04l-8.97,.4Zm8.97-.4l9.15-.41c5.78-.26,10.43-1.4,13.97-3.41,2.3-1.35,3.42-2.65,3.37-3.9-.05-1.21-1.3-1.76-3.75-1.65-5.21,.24-12.79,3.36-22.75,9.37-.54-11.71,.77-20.52,3.92-26.43,2.56-4.71,5.86-6.78,9.93-6.2,4.23,.62,8.33,3.92,12.32,9.91,2.12,3.45,3.7,7.15,4.76,11.1,1.06,3.95,1.57,7.83,1.55,11.67-.03,3.83-.62,7.57-1.78,11.21-1.16,3.64-2.81,6.89-4.96,9.75-2.15,2.86-4.93,5.27-8.32,7.24-3.39,1.97-7.2,3.21-11.42,3.72l-5.99-31.97Z"/>
      <path class="cls-1" d="M86.46,516.34c.3-.18,.56-.36,.8-.52,.24-.17,.41-.29,.52-.39,.11-.09,.19-.18,.26-.26,.07-.07,.12-.13,.16-.17v-.06c-.18,.35-.58,.79-1.18,1.31-1.76,2.03-3.78,3.35-6.05,3.97s-4.4,.54-6.41-.23c-2.01-.78-3.8-1.94-5.37-3.49-1.57-1.56-2.65-3.55-3.25-5.99-.6-2.44-.52-4.95,.22-7.52,.3-.79,.81-2.06,1.54-3.81,.73-1.75,1.23-3.03,1.51-3.84,.28-.81,.44-1.8,.47-2.97,.04-1.17-.21-2.15-.72-2.95l18.35,1.18c1.45,.25,2.64,1.02,3.55,2.29,.92,1.27,1.37,2.83,1.35,4.66-.02,1.84-.67,3.8-1.95,5.9-.14,.27-.92,1.49-2.35,3.64-1.43,2.15-2.28,3.48-2.56,3.98-1.72,2.03-2.18,3.66-1.36,4.88,.56,.8,1.28,.99,2.17,.57,.12-.03,.23-.09,.32-.16Zm42.31,14.71c-2.64-3.32-5.54-6.32-8.71-9.01-3.17-2.69-6.52-4.95-10.05-6.79-3.53-1.84-7.14-2.86-10.82-3.06-3.68-.2-7.05,.61-10.11,2.44l.45-.33c1.6-2.04,4.09-5.52,7.45-10.45,3.36-4.93,6.06-8.48,8.08-10.65,9.15-9.99,17.93-10.69,26.34-2.12l-2.63,39.98Z"/>
      <path class="cls-1" d="M81.69,439.28c2.48,4.67,6.05,7.53,10.7,8.58,3.9,.83,7.41,.17,10.53-1.98,3.6-2.51,5.34-6.17,5.21-11-.05-3.95-1.5-8.23-4.32-12.84l26.62,5.12c2.29,2.94,4.1,6.06,5.44,9.36,1.34,3.3,2.17,6.48,2.48,9.56,.31,3.08,.36,5.9,.14,8.46-.22,2.57-.64,5.02-1.26,7.36-2.5,9.12-7.21,15.17-14.15,18.15-5.8,2.5-12.09,2.44-18.88-.18-6.76-2.57-12.29-7.02-16.61-13.35-5.02-7.37-7.22-15.71-6.59-25.03-2.84,11.89-.45,22.24,7.16,31.05l-17.33-3.33,10.13-51.55,8.22,1.58c2.52,.48,4.67,1.38,6.44,2.68,1.78,1.31,3.07,2.8,3.88,4.47,.81,1.67,1.34,3.37,1.59,5.08,.24,1.71,.21,3.36-.1,4.94-.45,2.29-1.61,4.09-3.49,5.39-1.87,1.3-4.18,1.82-6.9,1.56-2.73-.26-5.7-1.62-8.91-4.08Z"/>
      <path class="cls-1" d="M99.65,408.29c-3.61-4.66-5.88-10.06-6.8-16.18s-.3-12.24,1.87-18.37c1.08-3.04,2.41-5.71,4-8,1.59-2.29,3.25-4.05,4.98-5.28,1.73-1.24,3.53-2.14,5.39-2.71,1.86-.57,3.66-.65,5.39-.24,1.73,.41,3.32,1.11,4.76,2.09,1.44,.99,2.66,2.39,3.66,4.21,1,1.82,1.66,3.91,1.98,6.29,.21,1.74,.46,3.91,.77,6.51s.55,4.63,.73,6.08c.18,1.45,.42,3.21,.72,5.28,.3,2.07,.6,3.71,.88,4.92,.29,1.21,.66,2.62,1.12,4.23,.47,1.62,.97,2.95,1.52,4.02,.55,1.07,1.21,2.19,1.98,3.37,.77,1.19,1.64,2.25,2.63,3.19,.99,.94,2.1,1.84,3.35,2.7-2.5-2.32-4.58-5.82-6.22-10.51s-2.7-9.47-3.17-14.35c-.47-4.88-.5-9.59-.08-14.15,.42-4.55,1.3-7.98,2.64-10.29l21.62,7.49c2.34,4.48,3.71,9.21,4.1,14.19,.39,4.98-.28,9.95-2.03,14.89-2.13,6.01-5.45,10.99-9.99,14.95-4.53,3.96-9.63,6.47-15.32,7.53-5.68,1.07-11.29,.51-16.82-1.66-5.51-2.12-10.06-5.51-13.68-10.18Zm29.58-2.11c-2.14-2.19-3.78-4.55-4.94-7.09-1.15-2.53-2.08-4.94-2.79-7.21-.71-2.27-1.37-4.63-1.99-7.09-.62-2.45-1.2-4.26-1.73-5.43-.62-1.54-1.45-2.63-2.5-3.27-1.05-.64-2.05-.84-3-.59s-1.68,.78-2.18,1.58c-1.22,1.88-1.59,4.19-1.09,6.92,.5,2.73,1.69,5.51,3.56,8.31,1.88,2.8,4.11,5.52,6.7,8.15,2.59,2.62,5.45,4.93,8.59,6.91,3.14,1.99,6.15,3.37,9.02,4.15-2.97-1.37-5.52-3.15-7.66-5.34Z"/>
      <path class="cls-1" d="M137.38,329.64c4.93-2.43,9.23-6.86,12.89-13.28,3.56-6.25,5.14-12.14,4.74-17.68l16.77,9.34c-5.5,3.5-9.76,7.9-12.78,13.2-3.14,5.51-4.75,11.43-4.85,17.76l-16.77-9.34Z"/>
    </g>
    <path class="cls-1" d="M540,1077.91c-72.91,0-143.65-14.26-210.24-42.38-64.31-27.15-122.06-66.02-171.64-115.53-49.58-49.49-88.5-107.13-115.69-171.3C14.27,682.26,0,611.69,0,538.96s14.27-143.3,42.42-209.74c27.19-64.18,66.11-121.81,115.69-171.31,49.59-49.5,107.33-88.37,171.64-115.53C396.35,14.26,467.09,0,540,0s143.65,14.26,210.24,42.38c64.31,27.15,122.06,66.02,171.64,115.53,49.58,49.49,88.5,107.13,115.69,171.31,28.15,66.44,42.42,137.01,42.42,209.74s-14.27,143.3-42.42,209.74c-27.19,64.18-66.11,121.81-115.69,171.3-49.59,49.5-107.33,88.37-171.64,115.53-66.6,28.12-137.33,42.38-210.24,42.38Zm0-1047.39c-68.72,0-135.39,13.43-198.13,39.93-60.62,25.6-115.07,62.25-161.84,108.94-46.78,46.7-83.5,101.07-109.15,161.62-26.56,62.69-40.02,129.29-40.02,197.95s13.47,135.26,40.02,197.95c25.65,60.55,62.38,114.92,109.15,161.62,46.77,46.69,101.22,83.34,161.84,108.94,62.75,26.5,129.41,39.93,198.13,39.93s135.38-13.43,198.13-39.93c60.62-25.6,115.07-62.25,161.84-108.94,46.78-46.7,83.5-101.07,109.15-161.62,26.56-62.69,40.03-129.29,40.03-197.95s-13.47-135.26-40.03-197.95c-25.65-60.55-62.38-114.92-109.15-161.62-46.77-46.69-101.22-83.34-161.84-108.94-62.75-26.5-129.41-39.93-198.13-39.93Z"/>
  </g>
  <g>
    <path d="M589.16,493.09c-7.62,1.32-12.95,4.79-19.09,2.27-.73-.3-2.35-.26-2.48,.06-5.37,12.8-20.68,5.4-28.89,14.62-13.51,15.17-30.21,16-48.8,6.7-26.76-13.38-51.28-30.21-76.78-45.55-34-20.45-65.97-43.59-95.87-69.51-6.83-5.92-13.62-12.13-18.1-20.05-2.43-4.29-3.18-6.96,4.96-7.01,29.11-.17,53.35,10.79,76.58,26.93,8.49,5.9,17.9,10.75,25.8,17.57,9.43,8.14,19.83,9.99,32.29,9.11,28.07-1.96,56.26-2.49,84.41-3.12,7.84-.18,14.59-1.53,19.22-8.15,1.85-2.64,4.12-3.89,7.14-4.95,3.64-1.28,7.6-4.57,10.55-.84,2.59,3.28-2.12,5.82-3.71,8.6-6.04,10.56-15.44,16.44-26.85,20.71-20.57,7.7-40.69,16.58-62.34,25.53,8.28,9.16,18.53,13.64,27.58,21.16,5.11-13.72,13.16-13.74,22.73-5.92,4.13,3.38,8.78,4.18,13.33,1.99,20.97-10.09,38.78-1.36,58.32,9.85Z"/>
    <path d="M780.27,703.29c-88.57-56.28-177.14-112.56-267.07-169.71,10.12-4.18,19.28-8.07,28.55-11.71,2.88-1.13,4.77,1.35,6.79,2.85,76.95,57.29,153.9,114.59,230.82,171.94,1.26,.94,2.1,2.42,3.13,3.65-.74,.99-1.48,1.99-2.21,2.98Z"/>
    <path d="M566.03,411.25c68.33,71.38,134.92,140.94,200.91,209.88-.99,2.21-1.07,2.4-1.16,2.59,.01-.32,.17-.8,.02-.94-69.29-61.54-135.55-126.26-203.71-188.98-10.38-9.55,2.63-13.4,3.95-22.55Z"/>
    <path d="M605.73,652.72c-62.06-31.25-124.12-62.5-186.91-94.12,12.82-4.79,23.91-4.6,38.03,3.35,49.81,28.08,99.26,56.78,148.82,85.3,.65,.37,.96,1.32,1.43,2-.46,1.16-.91,2.31-1.37,3.47Z"/>
    <path d="M427.48,550.32c-3.25,.01-8.26,1.02-6.81-4.38,5.5-20.55-5.6-38.61-8.36-57.89-.33-2.31-2.71-4.74-.74-6.88,3.16-3.45,5.25,.61,7.49,1.85q27.78,15.42,22.36,45.85c-.75,4.19-2.26,8.32-2.49,12.53-.41,7.58-5.12,9.06-11.44,8.93Z"/>
  </g>
</svg>