<?xml version="1.0" encoding="UTF-8"?>
<svg id="Layer_2" data-name="Layer 2" xmlns="http://www.w3.org/2000/svg" viewBox="0 0 414.35 475.65">
  <defs>
    <style>
      .cls-1 {
        fill: #231f20;
      }
    </style>
  </defs>
  <g id="Layer_1-2" data-name="Layer 1">
    <g>
      <path class="cls-1" d="M207.17,416.24c-20.03,0-39.46-3.96-57.75-11.77-17.66-7.54-33.52-18.33-47.14-32.08-28-28.26-43.42-65.83-43.42-105.78s15.42-77.52,43.42-105.78c13.62-13.74,29.48-24.54,47.14-32.08,18.29-7.81,37.72-11.77,57.75-11.77s39.46,3.96,57.75,11.77c17.66,7.54,33.52,18.33,47.14,32.08,28,28.26,43.42,65.83,43.42,105.78s-15.42,77.52-43.42,105.78c-13.62,13.74-29.48,24.54-47.14,32.08-18.29,7.81-37.72,11.77-57.75,11.77Zm0-287.31c-36.41,0-70.65,14.31-96.4,40.31-25.77,26.01-39.96,60.59-39.96,97.38s14.19,71.37,39.96,97.38c25.75,25.99,59.99,40.31,96.4,40.31s70.65-14.31,96.4-40.31c25.77-26.01,39.96-60.59,39.96-97.38s-14.19-71.37-39.96-97.38c-25.75-25.99-59.99-40.31-96.4-40.31Z"/>
      <g>
        <path class="cls-1" d="M65.95,161.85c-.67-1.62-1.03-3.28-1.09-4.98-.06-1.7,.14-3.27,.61-4.71,.47-1.44,1.19-2.73,2.17-3.89,.98-1.16,2.15-2.03,3.5-2.61,1.66-.71,3.45-.86,5.37-.44,1.92,.42,3.66,1.3,5.23,2.64,.37-.52,.7-1.22,1-2.09l8.14,6.7c-.19,.57-.7,1.35-1.53,2.34-.83,.99-1.75,1.8-2.77,2.44,.36,2.76-.03,5.3-1.17,7.61-1.14,2.31-2.81,3.94-5.03,4.89-1.81,.67-3.68,.79-5.62,.35-1.94-.44-3.7-1.39-5.28-2.86-1.59-1.47-2.76-3.27-3.54-5.4Zm1.45-3.79c.87,1.65,2.04,2.84,3.5,3.57,1.46,.73,2.79,.76,3.98,.11,.72-.44,1.28-1.04,1.67-1.81-.68,.07-1.44,.07-2.26,.02-1.58-.09-3-.56-4.25-1.42s-2.16-1.83-2.74-2.92c-.58-1.09-.85-2.14-.81-3.14v-.25c-.47,1.91-.16,3.86,.91,5.86Zm1.95-5.32c1.19,.9,2.5,1.27,3.95,1.11,1.45-.15,2.84-.71,4.17-1.69-.74-1.07-1.58-1.97-2.52-2.69s-1.96-1.17-3.05-1.34c-1.09-.17-2.03,0-2.81,.54l-.45,.33c-.44,.53-.6,1.15-.48,1.87,.12,.72,.52,1.34,1.19,1.88Z"/>
        <path class="cls-1" d="M108.07,137.22c.49,.55,.77,1.12,.84,1.73,.07,.61-.04,1.19-.32,1.75-.29,.56-.59,1.04-.92,1.43-.33,.4-.7,.78-1.12,1.16l-12.85,11.51-8.52-23.36,.66,3.72c.87,5.56,.86,8.65-.03,9.28-.29,.19-.65,.12-1.1-.21l-6.88-7.68c.58,.34,1.21,.35,1.91,.02,.69-.33,1.33-.84,1.89-1.54,.57-.7,1.1-1.42,1.6-2.17,.49-.75,.88-1.4,1.15-1.96l.43-.86,14.24,12.36c-1.87,4.99-3.38,8.45-4.52,10.37l.16-.14c.68-.84,1.41-1.91,2.19-3.22,.79-1.31,1.55-2.8,2.3-4.46,.75-1.66,1.37-3.28,1.86-4.88,.49-1.59,.76-3.14,.8-4.65,.04-1.5-.23-2.71-.81-3.61l7.04,5.4Z"/>
        <path class="cls-1" d="M103.74,124.68c.13,.04,.24,.08,.35,.11,.11,.03,.19,.05,.24,.06,.05,0,.1,.02,.14,.02,.04,0,.07,0,.09,0h.02c-.15,.02-.38,0-.68-.05-1.04-.03-1.92-.31-2.65-.84-.73-.53-1.22-1.18-1.47-1.97-.25-.79-.33-1.61-.24-2.45,.09-.85,.43-1.66,1.03-2.43,.59-.77,1.37-1.36,2.33-1.76,.31-.1,.82-.26,1.52-.47,.7-.21,1.21-.37,1.52-.48s.65-.31,1.01-.58c.36-.27,.6-.58,.72-.93l4.06,5.77c.27,.5,.33,1.04,.16,1.62-.16,.58-.52,1.09-1.08,1.54-.56,.44-1.31,.73-2.25,.85-.12,.03-.67,.09-1.66,.18-.99,.1-1.6,.16-1.82,.2-1.03-.02-1.63,.24-1.8,.78-.11,.36,0,.62,.35,.79,.04,.03,.08,.05,.12,.05Zm5.73,16.22c.37-1.6,.58-3.19,.63-4.79,.05-1.6-.07-3.15-.37-4.66-.29-1.5-.85-2.83-1.68-3.98-.83-1.15-1.88-1.96-3.17-2.43l.21,.05c1-.02,2.65-.12,4.95-.31,2.3-.19,4.02-.25,5.16-.18,5.22,.31,7.54,2.76,6.98,7.36l-12.71,8.94Z"/>
        <path class="cls-1" d="M111.02,110.33c1.03-.55,2.03-.95,2.99-1.18,.96-.24,1.85-.37,2.66-.39,.81-.02,1.65,.15,2.51,.53,.87,.38,1.63,.76,2.28,1.14,.65,.38,1.39,1.01,2.23,1.91,.83,.89,1.53,1.69,2.11,2.38,.57,.69,1.29,1.7,2.17,3.02,.87,1.32,1.59,2.43,2.15,3.34,.57,.91,1.33,2.18,2.31,3.8-.77-1.64-1.39-2.99-1.87-4.03-.47-1.04-1-2.26-1.59-3.66-.58-1.4-1.02-2.55-1.3-3.45-.28-.9-.55-1.93-.82-3.08s-.39-2.12-.36-2.9c.02-.78,.11-1.62,.26-2.52s.45-1.67,.9-2.33c.45-.65,1.02-1.3,1.71-1.95,.69-.64,1.53-1.23,2.51-1.75l6.34,11.89c-1.21,.22-2.21,.73-2.99,1.54-.78,.81-1.4,1.79-1.84,2.96-.44,1.17-.72,2.4-.85,3.72-.12,1.31-.12,2.59,0,3.83,.13,1.24,.37,2.34,.71,3.28-.64-.79-1.45-1.58-2.44-2.36-.99-.78-2.08-1.48-3.28-2.09-1.19-.61-2.41-1.05-3.64-1.33-1.23-.27-2.42-.3-3.55-.09-1.13,.22-2.13,.76-2.99,1.65l-6.34-11.89Z"/>
        <path class="cls-1" d="M139.17,102.59c.54-2.21,1.63-4.2,3.26-5.96,1.63-1.76,3.63-3.06,6-3.9,1.18-.42,2.3-.67,3.38-.75,1.07-.08,2-.01,2.79,.21,.79,.22,1.5,.54,2.12,.95,.62,.42,1.08,.94,1.37,1.55,.29,.62,.46,1.26,.51,1.93,.05,.67-.08,1.38-.39,2.12-.31,.74-.79,1.45-1.42,2.12-.48,.48-1.07,1.09-1.78,1.81-.71,.72-1.27,1.29-1.66,1.69-.4,.4-.87,.9-1.42,1.5-.55,.59-.98,1.08-1.27,1.46-.3,.38-.63,.83-1.01,1.36-.38,.53-.66,1.01-.85,1.43-.19,.42-.37,.89-.54,1.41-.17,.52-.28,1.04-.33,1.56-.05,.52-.05,1.07-.01,1.66,.1-1.31,.66-2.78,1.68-4.41,1.02-1.63,2.22-3.11,3.58-4.44,1.36-1.33,2.78-2.48,4.26-3.46,1.48-.98,2.73-1.55,3.75-1.71l2.93,8.29c-.79,1.79-1.89,3.35-3.31,4.68-1.41,1.33-3.07,2.33-4.99,3.01-2.33,.82-4.63,1.04-6.92,.65-2.29-.39-4.27-1.31-5.96-2.75-1.69-1.44-2.87-3.25-3.54-5.43-.68-2.16-.75-4.35-.21-6.56Zm7.75,8.33c.15-1.17,.47-2.24,.96-3.2s.99-1.82,1.51-2.58c.52-.76,1.07-1.54,1.67-2.32,.59-.78,1-1.39,1.23-1.84,.32-.56,.44-1.07,.39-1.54-.06-.47-.24-.81-.54-1.04-.3-.22-.64-.31-1-.27-.86,.09-1.65,.54-2.35,1.35s-1.26,1.84-1.66,3.09c-.4,1.24-.68,2.57-.85,3.98-.17,1.41-.18,2.83-.03,4.25,.15,1.42,.46,2.66,.91,3.7-.3-1.22-.37-2.42-.23-3.59Z"/>
        <path class="cls-1" d="M165.1,112.58c.6-6.57,2.67-14.86,6.21-24.89-.24,.7-.55,1.5-.92,2.4s-.85,1.97-1.44,3.2c-.59,1.23-1.18,2.34-1.77,3.33-.59,.99-1.24,1.86-1.94,2.59-.7,.73-1.34,1.14-1.94,1.21l-2.25-11.45c.75,.24,1.76,.33,3.03,.29,1.27-.04,2.61-.27,4.02-.67,1.41-.4,2.53-.96,3.36-1.66l2.96,15.06c-.27-2.58-.28-4.95-.03-7.12,.25-2.17,.68-3.95,1.29-5.33s1.34-2.49,2.17-3.33c.84-.84,1.71-1.33,2.63-1.47,.91-.14,1.78,.04,2.62,.55l2.02,10.26c-.63-.43-1.33-.71-2.12-.81-.79-.11-1.57-.07-2.35,.12-.78,.19-1.55,.54-2.29,1.05s-1.39,1.13-1.94,1.86c-.55,.73-.97,1.62-1.27,2.69-.3,1.06-.4,2.21-.31,3.43,.02,.12,.05,.3,.08,.52,.03,.23,.05,.4,.08,.52l1.09,5.52-10.99,2.16Z"/>
        <path class="cls-1" d="M210.14,85.38c-1.6,1.27-2.44,2.82-2.51,4.65-.04,1.53,.46,2.81,1.51,3.83,1.21,1.18,2.73,1.57,4.56,1.17,1.5-.3,3.03-1.16,4.58-2.56l-.05,10.41c-.96,1.07-2.02,1.98-3.18,2.73s-2.31,1.29-3.46,1.62c-1.15,.34-2.22,.56-3.21,.67-.99,.1-1.96,.12-2.9,.06-3.65-.28-6.3-1.62-7.93-4.02-1.37-2.01-1.79-4.38-1.28-7.13,.5-2.73,1.8-5.14,3.9-7.22,2.45-2.43,5.47-3.86,9.07-4.29-4.73-.21-8.51,1.44-11.32,4.94l.03-6.77,20.37,.1-.02,3.21c0,.98-.19,1.86-.56,2.62-.37,.76-.85,1.36-1.43,1.79-.58,.43-1.19,.75-1.82,.96-.63,.22-1.26,.32-1.89,.32-.91,0-1.67-.31-2.3-.93-.63-.61-.99-1.44-1.09-2.49-.1-1.05,.21-2.26,.92-3.65Z"/>
        <path class="cls-1" d="M222.61,93.8c1.95-2.53,4.42-4.43,7.44-5.7,3.01-1.27,6.55-1.75,10.62-1.44,.83,.03,2.47,.34,4.91,.92,2.44,.58,4.24,1.28,5.42,2.08l-1.25,7.18c-1.47,.78-2.76,.81-3.87,.11-.82-.51-1.27-1.25-1.37-2.24-.13-1.24,.37-2.3,1.52-3.16,.38-.28,.82-.52,1.31-.72-1.15,.39-2.09,.97-2.84,1.76-.75,.78-1.23,1.58-1.44,2.39-.21,.81-.23,1.59-.05,2.32,.18,.74,.55,1.28,1.11,1.63,.88,.53,1.83,.71,2.88,.54,1.04-.18,1.89-.67,2.54-1.48l-2.06,11.87c-.95,.99-2.04,1.62-3.27,1.9-1.23,.27-2.38,.21-3.45-.18-1.07-.39-2.03-1.08-2.88-2.06-.85-.98-1.38-2.13-1.61-3.46-.18-1.16-.16-2.38,.06-3.65,.22-1.28,.67-2.58,1.35-3.9,.68-1.32,1.46-2.55,2.34-3.66,.88-1.12,1.89-2.09,3.04-2.91,1.15-.82,2.3-1.37,3.44-1.65-1.62,.31-3.11,.92-4.46,1.84-1.35,.92-2.5,2.01-3.46,3.27-.95,1.25-1.82,2.51-2.59,3.76-.77,1.25-1.59,2.54-2.45,3.86-.86,1.32-1.67,2.33-2.43,3.04-1.94,1.96-3.94,2.81-6,2.53-1.69-.23-3.04-1.15-4.07-2.75-1.13-1.78-1.5-3.85-1.11-6.21,.33-2.02,1.23-3.96,2.67-5.82Zm5.6,.33c-.07,.7,.22,1.2,.87,1.49,.65,.3,1.4,.27,2.24-.08,.56-.22,1.3-.63,2.21-1.22,.91-.6,1.81-1.18,2.71-1.77,.89-.58,1.87-1.14,2.93-1.68,1.06-.54,2.21-.92,3.46-1.16,1.25-.24,2.48-.25,3.69-.04-1.27-.54-2.95-.84-5.04-.92-2.09-.08-4.15,.1-6.19,.52-1.98,.45-3.62,1.14-4.91,2.06s-1.95,1.85-1.97,2.79Z"/>
        <path class="cls-1" d="M269.73,116.54c-.24,.7-.61,1.22-1.11,1.58-.5,.36-1.06,.55-1.69,.57-.63,.02-1.2-.01-1.7-.11-.5-.09-1.02-.23-1.55-.42l-16.29-5.66,16.3-18.78-2.94,2.38c-4.44,3.45-7.15,4.94-8.13,4.47-.31-.16-.43-.51-.35-1.06l3.38-9.74c-.02,.67,.28,1.23,.91,1.68s1.38,.75,2.26,.91c.89,.16,1.78,.27,2.67,.35,.89,.07,1.65,.09,2.27,.06l.96-.04-3.9,18.45c-5.27,.78-9.02,1.14-11.27,1.07l.2,.07c1.06,.19,2.35,.3,3.88,.36,1.53,.05,3.2,0,5.01-.14s3.54-.39,5.17-.74c1.63-.34,3.12-.86,4.45-1.56,1.33-.69,2.25-1.52,2.77-2.46l-1.31,8.77Z"/>
        <path class="cls-1" d="M274.78,108.67c.8-.89,1.65-1.62,2.54-2.18,.89-.57,1.85-1.04,2.87-1.4,1.03-.37,2.06-.6,3.11-.71,1.05-.1,2.11-.13,3.2-.1,1.09,.04,2.15,.17,3.19,.41,1.04,.24,2.06,.51,3.06,.82,1,.31,1.94,.69,2.8,1.14s1.68,.91,2.44,1.38l-.22,.57c-.14,.38-.29,.74-.45,1.07-.16,.33-.37,.76-.66,1.27-.28,.51-.61,.97-.99,1.38-.38,.4-.8,.8-1.27,1.18-.47,.38-1.03,.67-1.67,.88-.64,.21-1.33,.3-2.06,.29-1.82,0-3.1-.48-3.84-1.4-.64-.81-.73-1.75-.28-2.83,.5-1.25,1.5-2.16,2.97-2.74,2.13-.83,4.54-.61,7.2,.66-.75-.6-1.72-1.04-2.91-1.34-1.19-.3-2.41-.41-3.65-.33-1.25,.08-2.44,.34-3.6,.79-1.16,.45-2.08,1.13-2.78,2.03-.7,.91-1.09,2.05-1.19,3.42-.04,1.07,.27,2.03,.94,2.87s1.57,1.46,2.7,1.83c1.13,.37,2.34,.55,3.63,.54,1.29-.01,2.6-.33,3.93-.97,1.33-.63,2.46-1.53,3.39-2.68l.04,.02-5.75,11.14c-1.02,.75-2.17,1.29-3.43,1.61s-2.53,.41-3.79,.3c-1.27-.12-2.53-.41-3.79-.88s-2.43-1.07-3.51-1.81c-1.08-.74-2.03-1.62-2.85-2.62-.83-1.01-1.46-2.07-1.89-3.18-.44-1.11-.63-2.31-.57-3.6,.06-1.29,.41-2.55,1.04-3.79,.59-1.14,1.28-2.15,2.08-3.04Z"/>
        <path class="cls-1" d="M300.84,118.02c1.58-.76,3.22-1.23,4.91-1.39s3.27-.05,4.73,.33c1.46,.38,2.8,1.02,4.01,1.93,1.21,.91,2.15,2.02,2.82,3.34,.81,1.62,1.07,3.4,.76,5.33-.31,1.94-1.08,3.73-2.32,5.38,.55,.34,1.26,.63,2.15,.87l-6.21,8.53c-.58-.15-1.39-.62-2.42-1.39s-1.9-1.64-2.6-2.62c-2.74,.52-5.29,.28-7.67-.71-2.38-1-4.11-2.57-5.18-4.73-.78-1.77-1.01-3.63-.69-5.59,.32-1.96,1.17-3.77,2.54-5.44,1.37-1.67,3.1-2.96,5.18-3.85Zm3.87,1.22c-1.59,.97-2.71,2.2-3.35,3.71-.64,1.5-.6,2.83,.13,3.98,.48,.7,1.11,1.22,1.91,1.56-.11-.68-.16-1.43-.15-2.26,0-1.59,.38-3.03,1.16-4.33,.78-1.3,1.7-2.27,2.75-2.91,1.06-.64,2.09-.97,3.09-1l.25-.02c-1.93-.34-3.86,.08-5.79,1.27Zm5.42,1.63c-.82,1.24-1.12,2.58-.88,4.01,.24,1.44,.88,2.79,1.93,4.06,1.03-.8,1.87-1.69,2.54-2.67,.67-.98,1.05-2.03,1.16-3.13,.11-1.1-.13-2.03-.71-2.78l-.35-.43c-.56-.4-1.19-.53-1.89-.36s-1.31,.6-1.8,1.3Z"/>
        <path class="cls-1" d="M335.41,139.82c-2.03-.21-3.72,.31-5.05,1.57-1.1,1.07-1.63,2.33-1.6,3.79,.04,1.69,.85,3.03,2.44,4.03,1.29,.83,2.97,1.29,5.06,1.38l-7.32,7.4c-1.44,.09-2.83,0-4.18-.28-1.35-.28-2.55-.7-3.61-1.27-1.06-.56-1.98-1.16-2.76-1.78s-1.48-1.28-2.11-1.99c-2.41-2.76-3.36-5.57-2.84-8.42,.43-2.39,1.79-4.38,4.08-5.99,2.27-1.6,4.88-2.41,7.84-2.43,3.45-.02,6.61,1.08,9.48,3.28-3.23-3.46-7.08-4.93-11.54-4.4l4.76-4.81,14.48,14.33-2.26,2.28c-.69,.7-1.44,1.19-2.24,1.48-.8,.29-1.56,.38-2.27,.28-.71-.1-1.37-.3-1.97-.59-.6-.29-1.13-.65-1.57-1.09-.64-.64-.98-1.39-1-2.27s.3-1.72,.96-2.54c.66-.82,1.73-1.47,3.21-1.96Z"/>
        <path class="cls-1" d="M326.41,162.02l19.35-14.43,9.11,12.21c-.61-.17-1.46-.35-2.54-.55s-2.59-.37-4.52-.52c-1.93-.15-3.88-.18-5.84-.09-1.96,.09-4.11,.41-6.45,.96-2.34,.55-4.47,1.34-6.39,2.37,4.93-1.94,9.34-2.37,13.24-1.3,2.93,.8,5.1,2.28,6.52,4.47,1.26,1.93,1.65,3.95,1.16,6.07-.33,1.39-1.02,2.66-2.08,3.8-1.28,1.34-2.83,2.35-4.65,3.03-1.82,.68-3.28,.94-4.36,.8l-6.16-8.27c1.35,.4,2.81,.39,4.38-.02,1.57-.41,2.63-1.2,3.18-2.38,.32-.72,.37-1.43,.15-2.13-.22-.7-.62-1.3-1.21-1.82-.59-.52-1.31-.96-2.17-1.34-.86-.38-1.74-.64-2.66-.8-.92-.16-1.83-.19-2.76-.11-.92,.08-1.72,.3-2.4,.65,2.37-.42,4.3-.19,5.78,.69,1.12,.67,1.68,1.51,1.69,2.54,0,.59-.24,1.12-.68,1.59-1.09,1.02-2.64,1.46-4.66,1.31l-5.03-6.75Z"/>
        <path class="cls-1" d="M359.33,181.95c-.28,2.1,.23,4.42,1.51,6.98,1.25,2.49,2.8,4.27,4.67,5.34l-6.6,3.31c.05-2.51-.45-4.82-1.51-6.93-1.1-2.19-2.66-3.99-4.67-5.39l6.6-3.31Z"/>
        <path class="cls-1" d="M371.58,205.31c1.83,.71,3.77,2.03,5.82,3.96,2.05,1.93,3.43,3.69,4.13,5.27l-7.52,2.17,.1,.02c1.69,.38,3.43,1.06,5.23,2.06,1.8,1,3.29,2.11,4.47,3.33l-7.61,2.2c3.64,1.05,6.89,2.81,9.77,5.28l-23.24,6.7-2.12-7.34c.95-.32,2.17-.68,3.68-1.08,1.5-.4,2.99-.77,4.46-1.11,1.47-.33,3.1-.57,4.88-.71,1.78-.14,3.43-.12,4.95,.06-1.3-.45-2.76-.72-4.38-.8-1.62-.08-3.32,.03-5.12,.32s-3.3,.58-4.52,.86c-1.22,.29-2.66,.66-4.33,1.13l-2.26-7.84c1.03-.33,2.16-.63,3.4-.9,1.24-.27,2.7-.52,4.37-.75,1.67-.23,3.45-.32,5.32-.28,1.88,.05,3.65,.26,5.32,.64-2.34-1.07-5.33-1.55-8.98-1.46s-6.93,.53-9.84,1.3l-2.21-7.66c2.06-.59,4.26-.93,6.6-1,2.34-.08,4.48,.04,6.42,.36,1.94,.31,3.78,.71,5.52,1.21,1.74,.5,3.15,.98,4.22,1.44,1.07,.46,1.81,.85,2.23,1.17-.44-.39-1.06-.83-1.85-1.3-.79-.47-1.82-.96-3.08-1.48-1.26-.51-2.61-.97-4.06-1.38-1.44-.41-3.09-.73-4.94-.99-1.85-.25-3.71-.37-5.57-.33l10.74-3.1Z"/>
        <path class="cls-1" d="M379.77,236.59c1.63,.64,3.08,1.54,4.34,2.67,1.26,1.13,2.25,2.37,2.96,3.7s1.15,2.75,1.3,4.26c.15,1.51-.03,2.95-.55,4.33-.64,1.69-1.77,3.08-3.41,4.17-1.64,1.09-3.48,1.73-5.53,1.94,.12,.63,.39,1.36,.82,2.17l-10.48,1.21c-.28-.53-.49-1.44-.62-2.72-.13-1.28-.08-2.51,.16-3.69-2.24-1.66-3.79-3.7-4.67-6.12-.88-2.42-.89-4.76-.03-7.02,.77-1.77,1.98-3.2,3.64-4.29,1.66-1.09,3.57-1.7,5.72-1.82,2.16-.12,4.27,.27,6.34,1.2Zm1.72,3.67c-1.79-.52-3.46-.5-5,.05-1.54,.55-2.49,1.48-2.84,2.79-.19,.82-.14,1.64,.14,2.46,.43-.54,.94-1.08,1.56-1.64,1.17-1.08,2.49-1.77,3.97-2.08,1.48-.31,2.82-.29,4.01,.05,1.19,.34,2.13,.87,2.83,1.59l.19,.17c-1.06-1.65-2.68-2.79-4.85-3.4Zm2.48,5.09c-1.47,.23-2.65,.92-3.55,2.07-.9,1.15-1.46,2.54-1.68,4.17,1.28,.21,2.51,.23,3.69,.06,1.17-.18,2.2-.6,3.09-1.27,.88-.67,1.4-1.47,1.56-2.4l.08-.55c-.08-.68-.42-1.23-1.02-1.64s-1.32-.56-2.17-.44Z"/>
        <path class="cls-1" d="M381.86,262.28c3.18,.15,5.25,1.22,6.18,3.2,.85,1.84,.62,4.08-.69,6.72-1.45,2.9-3.85,5.6-7.21,8.08-1.31,.97-2.73,1.86-4.25,2.66,.14-.07,.42-.2,.84-.37,.42-.18,.77-.34,1.08-.5,2.05-1.05,4.02-2.01,5.92-2.9,1.9-.89,3.28-1.52,4.16-1.88l1.32-.57-.59,12.55-23.93-1.13c2.56-1.13,5.28-2.41,8.16-3.84-1.94-1.33-3.53-2.7-4.78-4.11-1.25-1.41-2.11-2.76-2.58-4.05-.47-1.29-.67-2.55-.58-3.79,.08-1.24,.44-2.38,1.07-3.42,.63-1.04,1.47-2,2.53-2.86,1.06-.87,2.27-1.59,3.65-2.18,1.37-.58,2.9-1.02,4.57-1.31,1.67-.29,3.39-.39,5.15-.31Zm-7.22,17.75c-.06,.23-.17,.63-.33,1.19-.16,.56-.27,.98-.33,1.26,4.57-5.78,7.5-10.35,8.76-13.71,.64-1.66,.71-2.6,.2-2.83-.46-.19-1.2,.3-2.21,1.49-1.85,2.17-3.56,5.38-5.13,9.66-.34,.95-.67,1.93-.98,2.93Z"/>
        <path class="cls-1" d="M381.63,293.92c1.61,1.61,2.75,3.57,3.41,5.88,.66,2.31,.74,4.69,.22,7.16-.25,1.22-.62,2.32-1.11,3.28-.49,.96-1.03,1.72-1.62,2.28-.59,.56-1.23,1-1.91,1.31-.68,.31-1.36,.44-2.04,.37s-1.32-.26-1.92-.57c-.6-.31-1.13-.79-1.61-1.43-.47-.65-.83-1.42-1.07-2.32-.17-.66-.38-1.48-.62-2.46s-.45-1.75-.59-2.3c-.14-.55-.32-1.21-.54-1.99-.22-.78-.42-1.4-.59-1.85-.17-.45-.38-.97-.64-1.57-.26-.6-.52-1.09-.78-1.47s-.57-.78-.92-1.2c-.35-.42-.74-.78-1.16-1.09-.42-.31-.89-.6-1.41-.87,1.07,.76,2.04,2.01,2.9,3.73,.86,1.72,1.51,3.5,1.94,5.36,.43,1.85,.68,3.67,.75,5.43,.07,1.77-.09,3.13-.48,4.09l-8.61-1.79c-1.12-1.6-1.88-3.35-2.28-5.25s-.4-3.84,.01-5.83c.5-2.42,1.51-4.5,3.03-6.25,1.52-1.75,3.33-2.97,5.44-3.67,2.11-.7,4.27-.77,6.48-.21,2.2,.54,4.11,1.61,5.72,3.22Zm-11.14,2.3c.92,.74,1.67,1.56,2.24,2.48,.57,.92,1.04,1.79,1.43,2.63,.38,.84,.76,1.71,1.12,2.63,.36,.91,.67,1.58,.94,2,.31,.56,.69,.94,1.12,1.13,.43,.19,.82,.22,1.17,.08,.35-.14,.6-.38,.75-.72,.37-.79,.39-1.69,.06-2.72-.33-1.03-.92-2.03-1.78-3.01-.86-.98-1.84-1.92-2.96-2.79s-2.32-1.62-3.62-2.22c-1.29-.61-2.51-.98-3.64-1.14,1.2,.38,2.26,.93,3.18,1.67Z"/>
        <path class="cls-1" d="M359.65,310.91c5.31,3.91,11.35,9.96,18.12,18.17-.47-.57-1-1.25-1.58-2.03-.58-.79-1.25-1.75-2-2.88-.75-1.14-1.4-2.22-1.94-3.24-.54-1.02-.95-2.02-1.22-3-.27-.98-.28-1.74-.03-2.28l10.97,3.98c-.59,.52-1.19,1.33-1.81,2.45-.62,1.11-1.12,2.38-1.5,3.79-.38,1.41-.48,2.66-.31,3.74l-14.43-5.24c2.34,1.1,4.38,2.32,6.12,3.65,1.73,1.33,3.03,2.62,3.9,3.86s1.44,2.43,1.73,3.58c.29,1.15,.26,2.15-.09,3.01s-.96,1.51-1.82,1.96l-9.83-3.57c.7-.31,1.29-.78,1.79-1.39,.5-.62,.87-1.31,1.12-2.08,.24-.77,.34-1.6,.28-2.5s-.25-1.77-.59-2.62-.89-1.67-1.64-2.48-1.68-1.48-2.78-2.03c-.12-.04-.28-.11-.49-.2-.21-.09-.37-.16-.49-.2l-5.29-1.92,3.82-10.53Z"/>
        <path class="cls-1" d="M372.39,343.88c-.7,.24-1.26,.6-1.69,1.08-.43,.48-.7,1-.83,1.56-.13,.56-.25,1.17-.35,1.82-.1,.65-.17,1.27-.21,1.85-.04,.59-.17,1.14-.41,1.66-.23,.52-.56,.93-.97,1.22-.46,.32-.98,.46-1.56,.43s-1.2-.29-1.86-.8c-.66-.5-1.24-1.24-1.74-2.21-.1-.2-.16-.32-.17-.36,.01,.04,.07,.16,.17,.36,.59,1.22,1.02,2.48,1.27,3.78,.26,1.3,.35,2.52,.28,3.66-.07,1.14-.28,2.2-.65,3.16s-.84,1.79-1.43,2.45-1.31,1.12-2.16,1.38c-.85,.25-1.77,.28-2.75,.08s-2.07-.73-3.28-1.58-2.43-2.01-3.67-3.48c.64-.4,1.19-.96,1.63-1.68,.45-.73,.74-1.5,.89-2.33s.16-1.68,.04-2.56-.4-1.66-.85-2.36c-.45-.7-1.06-1.28-1.82-1.74s-1.72-.7-2.87-.71c1.65,.3,2.85,.92,3.59,1.86,.74,.93,1.14,1.95,1.19,3.05s-.18,2.12-.69,3.05c-.72,1.3-1.78,2.14-3.19,2.51-1.41,.37-2.88,.13-4.42-.74-1.51-.85-2.43-2.04-2.77-3.57-.33-1.53-.08-3.06,.77-4.6,.67-1.22,1.53-2.14,2.57-2.77,1.04-.63,2.15-.96,3.32-.99,1.17-.03,2.39,.19,3.65,.68s2.46,1.18,3.57,2.07c1.11,.9,2.13,2.02,3.06,3.37,.93,1.35,1.66,2.82,2.17,4.41-.07-.98-.31-2.04-.74-3.18-.43-1.14-1.06-2.29-1.9-3.47-.84-1.18-1.82-2.22-2.94-3.14-1.12-.92-2.48-1.64-4.1-2.15-1.62-.52-3.33-.7-5.14-.56l5.84-10.59c1.5,.72,2.9,1.67,4.22,2.85,1.32,1.18,2.41,2.38,3.28,3.6,.86,1.22,1.62,2.47,2.28,3.76,.65,1.29,1.14,2.41,1.45,3.36,.31,.95,.51,1.74,.59,2.37,.31-.76,.47-1.53,.49-2.32,.02-.79-.07-1.51-.26-2.15-.19-.64-.41-1.3-.65-1.98-.24-.68-.46-1.29-.67-1.84s-.32-1.12-.34-1.7,.1-1.11,.36-1.57l10.37,5.71Z"/>
        <path class="cls-1" d="M351.52,378.04c-1.42,2.46-2.88,4.64-4.38,6.55-1.5,1.9-2.96,3.45-4.35,4.63-1.4,1.18-2.8,2.14-4.21,2.88-1.41,.73-2.73,1.22-3.97,1.46-1.24,.24-2.44,.3-3.6,.18-1.16-.12-2.21-.38-3.15-.8-.94-.42-1.79-.95-2.57-1.6-1.47-1.24-2.44-2.71-2.94-4.39-.49-1.68-.37-3.25,.36-4.7,.73-1.45,2.2-2.58,4.41-3.37,1.6-.46,3.25-.51,4.95-.16,1.7,.35,3.22,.97,4.54,1.86,1.32,.89,2.47,1.94,3.45,3.16,.97,1.22,1.62,2.46,1.93,3.7-.08-1.54-.62-3.05-1.64-4.54-1.02-1.49-2.35-2.8-4.01-3.94s-3.64-2.05-5.95-2.73c-2.31-.68-4.72-.99-7.22-.93l10.78-12.11c1.15,1.08,2.26,2.29,3.32,3.63,1.07,1.34,2.08,2.85,3.05,4.54s1.75,3.38,2.34,5.08c.59,1.7,.92,3.47,1,5.33s-.18,3.59-.78,5.19c1.52-2.27,2.06-5.14,1.63-8.6-.43-3.47-1.61-6.7-3.54-9.7l10.54,9.38Zm-14.43,7.54c-1.93-.79-3.8-.97-5.6-.55-.53,.1-.99,.27-1.38,.51-.39,.24-.68,.52-.85,.81s-.26,.62-.26,.98c0,.35,.12,.69,.37,1.01,.25,.32,.61,.62,1.06,.9,1.67,.96,3.54,1.3,5.59,1s3.72-.99,4.99-2.06c-.69-.95-2-1.81-3.93-2.6Z"/>
        <path class="cls-1" d="M316.21,382.84c2.56,6.08,4.64,14.37,6.23,24.89-.12-.74-.22-1.59-.32-2.56-.1-.97-.17-2.14-.24-3.5-.06-1.36-.06-2.62,0-3.77,.06-1.16,.22-2.22,.49-3.2,.27-.98,.65-1.64,1.14-1.97l7.38,9.04c-.77,.14-1.71,.54-2.81,1.17-1.1,.64-2.18,1.47-3.23,2.49-1.05,1.02-1.78,2.04-2.18,3.05l-9.7-11.9c1.45,2.15,2.57,4.24,3.38,6.27,.8,2.04,1.26,3.81,1.37,5.31,.11,1.5,0,2.83-.35,3.96-.34,1.14-.88,1.98-1.62,2.53-.74,.55-1.59,.8-2.57,.75l-6.61-8.1c.76,.09,1.51,0,2.25-.28,.74-.27,1.42-.68,2.02-1.21,.6-.53,1.11-1.2,1.53-2,.41-.8,.69-1.65,.83-2.55,.14-.9,.09-1.89-.14-2.97-.23-1.08-.68-2.13-1.34-3.17-.08-.1-.18-.24-.31-.42-.13-.18-.24-.33-.32-.42l-3.55-4.36,8.68-7.08Z"/>
        <path class="cls-1" d="M305.32,412.93c.07,1.75-.16,3.44-.69,5.05-.53,1.61-1.26,3.02-2.19,4.21-.93,1.19-2.06,2.16-3.38,2.9s-2.71,1.16-4.19,1.25c-1.81,.1-3.54-.38-5.19-1.44-1.65-1.06-2.99-2.49-4-4.28-.53,.36-1.08,.91-1.66,1.62l-5.33-9.1c.37-.47,1.12-1.03,2.24-1.67,1.12-.64,2.27-1.08,3.44-1.34,.62-2.72,1.86-4.96,3.72-6.74,1.86-1.78,4-2.73,6.41-2.86,1.93,0,3.73,.53,5.4,1.61s2.99,2.58,3.97,4.5c.98,1.92,1.47,4.02,1.46,6.29Zm-6.33,7.38c-.8-1.25-1.91-2.05-3.33-2.41-1.41-.36-2.91-.31-4.49,.15,.32,1.26,.8,2.39,1.44,3.4,.63,1,1.43,1.78,2.4,2.31,.97,.54,1.91,.69,2.83,.46l.54-.15c.59-.35,.96-.88,1.09-1.59s-.02-1.44-.47-2.17Zm3.66-4.32c-.25-1.85-.93-3.36-2.06-4.55-1.12-1.19-2.36-1.68-3.7-1.47-.83,.16-1.56,.54-2.19,1.12,.66,.17,1.37,.43,2.13,.76,1.46,.63,2.62,1.56,3.5,2.8,.88,1.23,1.4,2.46,1.56,3.69,.17,1.22,.06,2.3-.32,3.23l-.08,.24c1.09-1.63,1.48-3.57,1.16-5.81Z"/>
        <path class="cls-1" d="M271.3,435.91c1.03-1.77,1.24-3.52,.64-5.25-.52-1.44-1.45-2.45-2.79-3.02-1.56-.66-3.12-.46-4.68,.57-1.29,.83-2.4,2.18-3.34,4.05l-3.74-9.71c.5-1.35,1.16-2.58,1.97-3.7,.81-1.12,1.69-2.04,2.64-2.77s1.87-1.33,2.75-1.79c.89-.46,1.78-.83,2.68-1.11,3.51-1.07,6.46-.78,8.85,.86,2,1.37,3.26,3.43,3.79,6.18,.53,2.72,.2,5.44-1.01,8.15-1.4,3.15-3.69,5.58-6.88,7.3,4.48-1.53,7.4-4.44,8.75-8.72l2.43,6.32-19.01,7.32-1.15-3c-.35-.92-.5-1.8-.43-2.65,.07-.85,.29-1.57,.68-2.18,.38-.61,.83-1.13,1.35-1.56,.51-.43,1.06-.76,1.64-.98,.85-.33,1.67-.32,2.48,.02s1.45,.98,1.92,1.92,.63,2.19,.47,3.74Z"/>
        <path class="cls-1" d="M260.7,441.53c-1.25-.35-2.66-1.03-4.23-2.01-1.57-.99-3.11-2.21-4.61-3.66,1.49,1.69,2.28,3.25,2.36,4.65,.08,1.41-.57,2.52-1.96,3.33-.68,.4-1.5,.7-2.46,.91-.96,.21-1.94,.32-2.94,.34-1,.01-2.04,.06-3.13,.15-1.09,.09-2.09,.2-3.03,.33-.93,.13-1.81,.42-2.64,.87-.83,.45-1.48,1.04-1.95,1.79l-2.14-9.37c.72-.79,1.61-1.39,2.68-1.81,1.07-.42,2.22-.66,3.47-.72,1.25-.06,2.39-.06,3.43,0s2.17,.16,3.39,.31c1.22,.15,2.06,.22,2.51,.24,1,.04,1.61-.09,1.83-.39,.22-.31,.03-.8-.55-1.48-.01-.05-.08-.13-.2-.24,.32,.42,.39,.79,.22,1.1-.18,.31-.56,.44-1.15,.38-.42,0-.98-.08-1.7-.24-.72-.16-1.43-.33-2.14-.51-.71-.18-1.51-.36-2.42-.53-.9-.17-1.75-.28-2.55-.33s-1.64-.01-2.52,.12c-.88,.13-1.66,.4-2.32,.81l-2.7-11.84c1.36,.27,2.93,.93,4.71,1.98,1.78,1.05,3.35,2.14,4.71,3.26,1.36,1.12,2.74,2.27,4.14,3.44,1.4,1.17,2.33,1.9,2.8,2.2h.04c.32,.19,.47,.18,.45-.04,0-.13-.06-.28-.2-.46-2.21-1.95-4.12-4.03-5.73-6.25-1.61-2.22-2.62-4.21-3.02-5.98l-.02-.09,10.76-2.46,1.99,8.71c-.57,.08-1.33,.03-2.27-.17-.94-.19-1.95-.5-3.03-.92-1.08-.42-2.17-1.03-3.27-1.83s-2-1.7-2.71-2.69c.14,.48,.54,1.12,1.19,1.93,.65,.81,1.54,1.64,2.69,2.5,3.46,2.43,7.26,3.18,11.4,2.23l2.84,12.45Z"/>
        <path class="cls-1" d="M230.65,441.06c-.72,1.6-1.68,3-2.88,4.21-1.19,1.21-2.47,2.14-3.84,2.78s-2.81,1.01-4.32,1.09c-1.51,.08-2.95-.17-4.3-.75-1.66-.72-3-1.92-4-3.61-1.01-1.69-1.56-3.56-1.67-5.62-.64,.09-1.37,.33-2.21,.71l-.71-10.52c.55-.26,1.46-.42,2.75-.49s2.51,.04,3.68,.34c1.77-2.16,3.88-3.61,6.34-4.37,2.46-.76,4.8-.66,7.01,.3,1.73,.85,3.1,2.13,4.11,3.84,1.01,1.71,1.52,3.64,1.54,5.8s-.48,4.25-1.5,6.28Zm-8.95,3.78c-.16-1.48-.8-2.69-1.9-3.64-1.11-.95-2.47-1.58-4.09-1.87-.27,1.27-.35,2.5-.23,3.68,.12,1.18,.49,2.23,1.12,3.14,.62,.91,1.4,1.47,2.32,1.68l.55,.1c.69-.05,1.25-.36,1.69-.94,.44-.58,.62-1.29,.55-2.15Zm5.21-2.23c.6-1.76,.67-3.43,.19-4.99-.47-1.57-1.36-2.55-2.66-2.97-.81-.23-1.64-.22-2.46,.03,.52,.45,1.04,.99,1.57,1.63,1.02,1.21,1.65,2.57,1.88,4.07,.23,1.5,.15,2.83-.25,4-.4,1.17-.98,2.08-1.73,2.75l-.18,.18c1.7-.98,2.91-2.54,3.63-4.68Z"/>
        <path class="cls-1" d="M183.87,427.32c.06-.73,.29-1.33,.68-1.8s.89-.79,1.49-.97c.6-.18,1.16-.28,1.67-.32,.51-.04,1.05-.03,1.61,.02l17.19,1.45-11.14,22.23,2.26-3.03c3.45-4.44,5.71-6.56,6.77-6.34,.34,.08,.54,.39,.6,.95l-.87,10.28c-.15-.66-.58-1.12-1.29-1.4-.71-.28-1.52-.39-2.42-.32-.9,.06-1.79,.17-2.67,.33-.88,.15-1.62,.32-2.22,.51l-.92,.27-.79-18.84c4.91-2.06,8.46-3.34,10.65-3.83l-.21-.02c-1.07,.08-2.36,.29-3.85,.62-1.49,.33-3.1,.79-4.82,1.38-1.72,.59-3.33,1.26-4.83,1.99-1.5,.74-2.8,1.6-3.92,2.61-1.12,1-1.81,2.03-2.07,3.07l-.9-8.83Z"/>
        <path class="cls-1" d="M177.72,439.07c-.06-.12-.11-.23-.16-.33-.05-.1-.09-.17-.12-.22-.03-.05-.06-.08-.08-.11-.03-.03-.04-.05-.06-.07h-.02c.13,.08,.27,.26,.44,.52,.69,.78,1.09,1.61,1.21,2.51,.12,.89-.02,1.7-.42,2.43-.4,.72-.94,1.34-1.62,1.86-.68,.52-1.5,.82-2.47,.92-.97,.1-1.93-.06-2.88-.48-.29-.15-.75-.42-1.38-.78-.63-.37-1.1-.63-1.4-.77-.3-.15-.67-.26-1.12-.33-.45-.08-.84-.04-1.17,.12l1.41-6.91c.17-.54,.53-.95,1.06-1.23,.54-.28,1.16-.37,1.86-.27,.71,.1,1.43,.45,2.17,1.05,.1,.07,.52,.43,1.27,1.08,.75,.65,1.22,1.05,1.4,1.18,.69,.76,1.29,1.02,1.8,.77,.34-.17,.45-.43,.33-.79,0-.05-.02-.09-.04-.13Zm7.85-15.31c-1.41,.83-2.72,1.78-3.91,2.84-1.2,1.06-2.24,2.22-3.13,3.46-.89,1.25-1.47,2.56-1.74,3.95-.27,1.39-.13,2.71,.41,3.97l-.1-.19c-.7-.72-1.91-1.84-3.63-3.38s-2.94-2.75-3.67-3.63c-3.36-4-3.18-7.38,.55-10.12l15.23,3.1Z"/>
        <path class="cls-1" d="M160.99,435.87c-1.29,1.19-2.72,2.1-4.3,2.74-1.57,.64-3.11,.99-4.63,1.05s-2.98-.17-4.4-.69c-1.42-.52-2.64-1.32-3.66-2.38-1.25-1.31-2-2.94-2.26-4.89-.26-1.95-.04-3.89,.67-5.82-.62-.17-1.39-.24-2.31-.21l3.48-9.96c.6-.02,1.51,.19,2.72,.63,1.21,.44,2.29,1.03,3.25,1.76,2.47-1.29,4.99-1.8,7.55-1.53,2.56,.27,4.67,1.28,6.33,3.03,1.26,1.47,2.02,3.18,2.27,5.15,.26,1.97-.03,3.95-.86,5.94-.83,2-2.11,3.72-3.85,5.19Zm-9.72-.04c.43-1.42,.32-2.79-.32-4.1-.64-1.31-1.65-2.42-3.02-3.33-.75,1.06-1.3,2.16-1.66,3.29-.35,1.13-.42,2.24-.21,3.33,.22,1.08,.71,1.9,1.48,2.45l.46,.31c.65,.23,1.29,.16,1.92-.2,.63-.36,1.08-.95,1.35-1.76Zm5.66,0c1.25-1.39,1.96-2.89,2.14-4.52,.18-1.62-.25-2.88-1.28-3.77-.66-.53-1.42-.84-2.28-.94,.3,.62,.56,1.32,.8,2.12,.46,1.52,.51,3.01,.13,4.48-.37,1.47-.97,2.66-1.8,3.58-.83,.92-1.72,1.54-2.67,1.85l-.23,.09c1.95-.23,3.68-1.19,5.18-2.88Z"/>
        <path class="cls-1" d="M128.43,421.85c-.93-1.9-2.64-3.55-5.13-4.97-2.42-1.38-4.7-1.99-6.85-1.85l3.65-6.42c1.35,2.12,3.05,3.76,5.1,4.92,2.13,1.21,4.42,1.84,6.88,1.89l-3.65,6.42Z"/>
        <path class="cls-1" d="M107.77,405.6c-.97,.7-1.96,1.22-2.95,1.59-.99,.36-2.03,.62-3.11,.75-1.08,.14-2.14,.15-3.19,.02-1.04-.13-2.09-.32-3.15-.59-1.06-.27-2.07-.63-3.03-1.08-.96-.45-1.9-.94-2.81-1.45-.91-.51-1.74-1.09-2.49-1.71-.75-.63-1.44-1.25-2.09-1.87l.33-.51c.22-.34,.45-.66,.67-.95,.22-.29,.53-.66,.91-1.1,.39-.44,.81-.82,1.26-1.13,.45-.31,.95-.61,1.49-.88,.54-.27,1.15-.44,1.82-.5,.67-.06,1.36-.01,2.08,.16,1.78,.4,2.93,1.13,3.45,2.19,.45,.92,.34,1.87-.34,2.83-.76,1.11-1.92,1.79-3.49,2.04-2.26,.36-4.56-.37-6.9-2.19,.6,.74,1.45,1.39,2.55,1.93,1.1,.55,2.27,.92,3.5,1.11,1.23,.19,2.46,.19,3.69,0,1.22-.19,2.27-.66,3.15-1.39,.88-.74,1.51-1.77,1.89-3.09,.27-1.04,.17-2.04-.31-3.01-.47-.97-1.22-1.76-2.24-2.36s-2.16-1.04-3.43-1.3-2.61-.23-4.04,.1c-1.43,.33-2.73,.97-3.88,1.89l-.04-.03,8-9.65c1.16-.52,2.39-.8,3.69-.83,1.3-.04,2.56,.14,3.77,.52,1.21,.39,2.38,.94,3.52,1.67,1.13,.73,2.15,1.57,3.04,2.52,.89,.96,1.64,2.01,2.23,3.17,.59,1.16,.98,2.33,1.17,3.51s.11,2.4-.22,3.64c-.33,1.25-.94,2.41-1.83,3.48-.82,.99-1.71,1.83-2.69,2.52Z"/>
        <path class="cls-1" d="M80.2,396.87c-.78-.88-1.4-1.75-1.86-2.63-.46-.88-.8-1.71-1.01-2.49-.22-.78-.24-1.64-.08-2.57,.16-.93,.35-1.76,.56-2.48,.21-.72,.66-1.59,1.33-2.61,.67-1.02,1.28-1.89,1.82-2.61,.54-.72,1.35-1.66,2.42-2.82,1.07-1.16,1.99-2.12,2.74-2.88,.75-.76,1.8-1.81,3.15-3.14-1.42,1.14-2.57,2.06-3.47,2.76-.9,.71-1.96,1.51-3.18,2.41-1.22,.9-2.23,1.59-3.05,2.07-.81,.49-1.75,1-2.8,1.53-1.05,.53-1.96,.88-2.73,1.04-.77,.16-1.6,.27-2.51,.34-.91,.06-1.73-.04-2.47-.33-.74-.28-1.51-.68-2.3-1.2-.79-.52-1.55-1.2-2.29-2.02l10.06-8.97c.5,1.12,1.24,1.97,2.2,2.54,.97,.57,2.07,.93,3.31,1.09,1.24,.15,2.51,.13,3.81-.06,1.31-.19,2.55-.5,3.72-.92,1.18-.42,2.18-.91,3.02-1.47-.62,.81-1.19,1.78-1.72,2.93-.52,1.15-.94,2.38-1.26,3.68-.31,1.3-.46,2.59-.43,3.85,.03,1.26,.28,2.42,.76,3.47,.48,1.05,1.25,1.89,2.3,2.51l-10.06,8.97Z"/>
        <path class="cls-1" d="M56.04,368.17c-3.01-2.67-2.41-5.89,1.83-9.67,1.84-1.64,4.7-3.57,8.58-5.78-.07-.69-.6-1.65-1.59-2.86-.99-1.21-1.92-2.11-2.8-2.71-.37,.45-.3,1.27,.22,2.47,.52,1.2,1.33,2.21,2.43,3.04l-13.22,7.53c-3.12-2.72-2.3-6.05,2.45-10,1.75-1.45,4.43-3.2,8.06-5.27,.03-.55-.45-1.35-1.42-2.4-.97-1.05-1.89-1.82-2.76-2.34-.16,.25-.2,.61-.12,1.08,.08,.47,.34,1.04,.78,1.73s1.05,1.32,1.81,1.91l-13.22,7.53c-1.55-1.52-2.12-3.21-1.69-5.05,.44-1.92,1.8-3.64,4.1-5.17,2.62-1.75,5.65-2.72,9.1-2.92,4.09-.24,7.85,.7,11.29,2.82l-6.52,3.71c1.76,0,3.73,.45,5.91,1.35,2.18,.9,3.86,1.81,5.05,2.73l-5.48,3.12c-.87,.5-1.41,.87-1.62,1.14-.53,.46-.82,1.02-.88,1.67-.06,.65,.07,1.3,.37,1.93,.31,.63,.67,1.21,1.08,1.73,.41,.52,.84,.94,1.27,1.25l-13.01,7.42Z"/>
        <path class="cls-1" d="M46.88,338.46c-2.23-.48-4.25-1.51-6.05-3.09-1.81-1.58-3.16-3.55-4.07-5.89-.45-1.17-.73-2.29-.84-3.36-.11-1.07-.07-2,.13-2.8,.2-.8,.5-1.51,.9-2.14,.4-.63,.91-1.1,1.52-1.41,.61-.31,1.25-.5,1.92-.56,.67-.07,1.38,.05,2.13,.34,.75,.29,1.47,.75,2.16,1.37,.5,.46,1.12,1.04,1.86,1.73,.74,.69,1.32,1.23,1.74,1.62,.42,.38,.93,.84,1.54,1.38s1.11,.95,1.49,1.23c.39,.29,.85,.61,1.39,.97,.54,.36,1.03,.63,1.45,.81,.43,.18,.9,.35,1.43,.51,.52,.16,1.04,.25,1.57,.29,.52,.03,1.08,.02,1.66-.04-1.31-.06-2.8-.58-4.46-1.56-1.66-.98-3.17-2.13-4.53-3.45s-2.55-2.71-3.57-4.16c-1.02-1.45-1.62-2.68-1.81-3.7l8.2-3.16c1.81,.74,3.4,1.8,4.76,3.18s2.41,3.01,3.14,4.91c.89,2.3,1.17,4.6,.84,6.9-.33,2.3-1.19,4.31-2.59,6.03-1.4,1.73-3.17,2.95-5.34,3.69-2.14,.74-4.33,.87-6.56,.39Zm8.12-7.97c-1.18-.12-2.25-.41-3.22-.87-.97-.46-1.85-.94-2.63-1.44s-1.56-1.03-2.36-1.6-1.42-.96-1.87-1.17c-.57-.3-1.08-.42-1.55-.34-.47,.07-.81,.26-1.02,.57-.22,.31-.29,.64-.24,1.01,.11,.86,.59,1.63,1.42,2.32,.83,.68,1.88,1.21,3.13,1.57,1.25,.36,2.59,.61,4,.74,1.42,.13,2.83,.1,4.25-.09,1.42-.19,2.64-.53,3.68-1.01-1.21,.33-2.4,.44-3.58,.32Z"/>
        <path class="cls-1" d="M55.88,312.02l-18.5,3.93-8.74-12.28c.16,.01,.39,.03,.69,.04s.93,.08,1.88,.19,1.93,.24,2.91,.39c.98,.15,2.19,.38,3.62,.7,1.43,.32,2.83,.69,4.18,1.1l1.83,.59c-6.1-2.17-10.52-4.67-13.26-7.49-2.13-2.2-2.92-4.25-2.36-6.16,.57-1.85,2.29-3.19,5.18-4.02,.39-.11,.8-.22,1.23-.31,1.64-.35,3.26-.52,4.88-.51,1.62,0,3.11,.17,4.49,.5,1.38,.32,2.63,.8,3.76,1.44,1.13,.64,2.06,1.38,2.81,2.23,.75,.85,1.25,1.84,1.52,2.97,.27,1.13,.27,2.33,0,3.58-.26,1.25-.88,2.62-1.85,4.11-.97,1.48-2.28,2.98-3.92,4.5,1.76,.63,3.62,1.4,5.55,2.29,1.94,.9,3.31,1.63,4.1,2.2Zm-11.02-6.07c-.09-.19-.24-.5-.46-.94-.22-.44-.38-.78-.48-1.01-2.2-4.42-4.51-7.78-6.93-10.08-1.3-1.23-2.24-1.8-2.83-1.72-.51,.06-.55,.6-.11,1.61,.93,2.1,3.32,5.04,7.19,8.8,1.11,1.08,2.32,2.19,3.63,3.35Z"/>
        <path class="cls-1" d="M35.94,283.94c-1.09,1.52-2.38,2.09-3.89,1.71-1.5-.38-2.87-1.61-4.09-3.7-.81-1.34-1.43-2.77-1.85-4.3-.42-1.53-.64-3.03-.66-4.51-.02-1.48,.18-2.91,.6-4.31,.42-1.39,1.03-2.64,1.82-3.74,.79-1.1,1.84-2.03,3.12-2.78,1.29-.75,2.74-1.23,4.36-1.43,.85,3.23,1.71,7.32,2.58,12.27,.21,4.93-.46,8.53-2,10.79Zm-1.45-10.63c-2.62,.12-4.68,.63-6.17,1.52-.93,.56-1.37,1.09-1.31,1.58,.07,.5,.63,.71,1.67,.63,2.18-.13,5.27-1.43,9.25-3.89l-3.44,.16Zm3.44-.16l3.51-.16c2.22-.1,4-.54,5.36-1.32,.88-.52,1.31-1.03,1.29-1.51-.02-.47-.5-.68-1.44-.64-2,.09-4.91,1.3-8.73,3.63-.21-4.54,.29-7.96,1.5-10.25,.98-1.83,2.25-2.63,3.81-2.4,1.62,.24,3.2,1.52,4.73,3.84,.81,1.34,1.42,2.77,1.83,4.3,.41,1.53,.6,3.04,.59,4.53-.01,1.49-.24,2.94-.68,4.35-.44,1.41-1.08,2.67-1.9,3.78-.83,1.11-1.89,2.04-3.19,2.81s-2.76,1.24-4.38,1.44l-2.3-12.4Z"/>
        <path class="cls-1" d="M33.17,257.84c.11-.07,.22-.14,.31-.2,.09-.07,.16-.11,.2-.15,.04-.04,.07-.07,.1-.1,.03-.03,.05-.05,.06-.07v-.02c-.07,.14-.22,.31-.45,.51-.68,.79-1.45,1.3-2.32,1.54s-1.69,.21-2.46-.09c-.77-.3-1.46-.75-2.06-1.36-.6-.6-1.02-1.38-1.25-2.33-.23-.95-.2-1.92,.08-2.92,.11-.31,.31-.8,.59-1.48,.28-.68,.47-1.17,.58-1.49,.11-.31,.17-.7,.18-1.15,.01-.45-.08-.83-.28-1.15l7.04,.46c.56,.1,1.01,.39,1.36,.89,.35,.49,.52,1.1,.52,1.81,0,.71-.26,1.48-.75,2.29-.05,.11-.35,.58-.9,1.41-.55,.83-.87,1.35-.98,1.54-.66,.79-.84,1.42-.52,1.89,.21,.31,.49,.38,.83,.22,.05-.01,.09-.03,.12-.06Zm16.23,5.71c-1.01-1.29-2.13-2.45-3.34-3.49-1.22-1.04-2.5-1.92-3.86-2.63-1.35-.71-2.74-1.11-4.15-1.19-1.41-.08-2.71,.24-3.88,.95l.17-.13c.62-.79,1.57-2.14,2.86-4.05,1.29-1.91,2.32-3.29,3.1-4.13,3.51-3.87,6.88-4.15,10.11-.82l-1.01,15.51Z"/>
        <path class="cls-1" d="M31.34,227.95c.95,1.81,2.32,2.92,4.1,3.33,1.5,.32,2.84,.07,4.04-.77,1.38-.97,2.05-2.39,2-4.27-.02-1.53-.57-3.19-1.66-4.98l10.21,1.99c.88,1.14,1.57,2.35,2.09,3.63,.52,1.28,.83,2.51,.95,3.71,.12,1.19,.14,2.29,.06,3.28-.08,1-.24,1.95-.48,2.85-.96,3.54-2.77,5.88-5.43,7.04-2.23,.97-4.64,.95-7.24-.07-2.59-1-4.72-2.72-6.37-5.18-1.93-2.86-2.77-6.09-2.53-9.71-1.09,4.61-.17,8.62,2.75,12.04l-6.65-1.29,3.89-19.99,3.15,.61c.97,.19,1.79,.54,2.47,1.04,.68,.51,1.18,1.08,1.49,1.73,.31,.65,.51,1.31,.61,1.97,.09,.66,.08,1.3-.04,1.92-.17,.89-.62,1.59-1.34,2.09-.72,.5-1.6,.71-2.65,.61-1.05-.1-2.19-.63-3.42-1.58Z"/>
        <path class="cls-1" d="M38.23,215.93c-1.39-1.81-2.25-3.9-2.61-6.28s-.11-4.75,.72-7.12c.41-1.18,.92-2.21,1.53-3.1,.61-.89,1.25-1.57,1.91-2.05,.66-.48,1.35-.83,2.07-1.05,.71-.22,1.4-.25,2.07-.09,.66,.16,1.27,.43,1.83,.81,.55,.38,1.02,.93,1.4,1.63,.38,.71,.64,1.52,.76,2.44,.08,.67,.18,1.52,.3,2.53s.21,1.8,.28,2.36c.07,.56,.16,1.25,.28,2.05,.12,.8,.23,1.44,.34,1.91,.11,.47,.25,1.01,.43,1.64,.18,.63,.37,1.15,.58,1.56,.21,.41,.46,.85,.76,1.31,.29,.46,.63,.87,1.01,1.24,.38,.36,.81,.71,1.29,1.05-.96-.9-1.76-2.26-2.39-4.08s-1.04-3.67-1.22-5.57c-.18-1.89-.19-3.72-.03-5.49,.16-1.76,.5-3.09,1.01-3.99l8.29,2.9c.9,1.74,1.42,3.57,1.57,5.5,.15,1.93-.11,3.86-.78,5.77-.82,2.33-2.09,4.26-3.83,5.8-1.74,1.54-3.7,2.51-5.88,2.92-2.18,.41-4.33,.2-6.45-.65-2.11-.82-3.86-2.14-5.25-3.95Zm11.35-.82c-.82-.85-1.45-1.77-1.89-2.75-.44-.98-.8-1.92-1.07-2.8-.27-.88-.52-1.8-.76-2.75-.24-.95-.46-1.65-.67-2.11-.24-.6-.56-1.02-.96-1.27-.4-.25-.78-.32-1.15-.23s-.64,.3-.84,.61c-.47,.73-.61,1.62-.42,2.68,.19,1.06,.65,2.14,1.37,3.22,.72,1.09,1.58,2.14,2.57,3.16,.99,1.02,2.09,1.91,3.29,2.68,1.2,.77,2.36,1.31,3.46,1.61-1.14-.53-2.12-1.22-2.94-2.07Z"/>
        <path class="cls-1" d="M52.71,185.42c1.89-.94,3.54-2.66,4.94-5.15,1.36-2.42,1.97-4.71,1.82-6.86l6.43,3.62c-2.11,1.36-3.74,3.07-4.9,5.12-1.2,2.14-1.82,4.43-1.86,6.89l-6.43-3.62Z"/>
      </g>
      <text/>
      <path class="cls-1" d="M207.17,475.65c-27.97,0-55.11-5.53-80.66-16.44-24.67-10.53-46.83-25.61-65.85-44.81-19.02-19.2-33.95-41.55-44.39-66.44C5.48,322.19,0,294.82,0,266.61s5.48-55.58,16.28-81.35c10.43-24.89,25.36-47.25,44.39-66.44,19.02-19.2,41.18-34.28,65.85-44.81,25.55-10.91,52.69-16.44,80.66-16.44s55.11,5.53,80.66,16.44c24.67,10.53,46.83,25.61,65.85,44.81,19.02,19.2,33.95,41.55,44.39,66.44,10.8,25.77,16.28,53.14,16.28,81.35s-5.48,55.58-16.28,81.35c-10.43,24.89-25.36,47.25-44.39,66.44-19.02,19.2-41.18,34.28-65.85,44.81-25.55,10.91-52.69,16.44-80.66,16.44Zm0-406.24c-26.37,0-51.94,5.21-76.01,15.49-23.26,9.93-44.15,24.14-62.09,42.25-17.95,18.11-32.04,39.2-41.88,62.69-10.19,24.31-15.36,50.14-15.36,76.78s5.17,52.46,15.36,76.78c9.84,23.48,23.93,44.57,41.88,62.69,17.94,18.11,38.83,32.32,62.09,42.25,24.07,10.28,49.65,15.49,76.01,15.49s51.94-5.21,76.01-15.49c23.26-9.93,44.15-24.14,62.09-42.25,17.95-18.11,32.04-39.2,41.88-62.69,10.19-24.31,15.36-50.14,15.36-76.78s-5.17-52.46-15.36-76.78c-9.84-23.48-23.93-44.57-41.88-62.69-17.94-18.11-38.83-32.32-62.09-42.25-24.07-10.28-49.65-15.49-76.01-15.49Z"/>
    </g>
  </g>
</svg>